<svg width="69" height="20" viewBox="0 0 69 20" fill="none" xmlns="http://www.w3.org/2000/svg">
<path d="M0.449039 15.5955V7.91017H10.0368V7.46063H0.449039V0.449405H10.643V0H0V16.0449H10.7327V15.5955H0.449039ZM19.3775 4.49432L15.4033 9.73032L11.5187 4.49445H10.9349L15.1338 10.0675L10.5306 16.0448H11.0695L15.403 10.4043L19.7591 16.0448H20.3204L15.6949 10.0672L19.9162 4.49418L19.3775 4.49432ZM21.6678 20V12.8091H21.7126C21.9822 13.8578 22.5135 14.7005 23.3069 15.3372C24.1003 15.9738 25.1106 16.2923 26.3381 16.2923C27.1314 16.2923 27.835 16.1312 28.4488 15.8092C29.0625 15.4871 29.5751 15.0489 29.9868 14.4945C30.3984 13.9402 30.7128 13.296 30.9299 12.5619C31.1469 11.8279 31.2555 11.0563 31.2555 10.2474C31.2555 9.37843 31.1431 8.57686 30.9186 7.84287C30.6941 7.10874 30.3685 6.472 29.942 5.93276C29.5153 5.3934 28.9989 4.9738 28.3926 4.67438C27.7864 4.37468 27.1015 4.22484 26.3381 4.22484C25.7543 4.22484 25.2117 4.31102 24.7102 4.48326C24.2088 4.65563 23.7635 4.89894 23.3743 5.21361C22.9828 5.53069 22.642 5.9058 22.3638 6.32593C22.0795 6.75294 21.8624 7.22109 21.7126 7.73052H21.6678V4.49432H21.2187V20H21.6678ZM26.3381 15.8651C24.9311 15.8651 23.8008 15.382 22.9476 14.4158C22.0944 13.4495 21.6678 12.0599 21.6678 10.2472C21.6678 9.49806 21.7726 8.78646 21.9822 8.11235C22.1917 7.43824 22.4948 6.84641 22.8914 6.33712C23.2882 5.8277 23.7785 5.42321 24.3621 5.12365C24.9459 4.82395 25.6047 4.67411 26.3381 4.67411C27.0865 4.67411 27.7415 4.82395 28.3028 5.12365C28.8641 5.42321 29.3282 5.83147 29.6949 6.34832C30.0616 6.86516 30.3386 7.45699 30.5258 8.12355C30.7128 8.79023 30.8063 9.49806 30.8063 10.2472C30.8063 10.9214 30.7204 11.5919 30.5481 12.2584C30.376 12.9251 30.1103 13.5244 29.751 14.0563C29.3918 14.588 28.9316 15.0224 28.3702 15.3596C27.8088 15.6967 27.1314 15.8651 26.3381 15.8651ZM33.7254 16.0449V9.50561C33.7254 8.87642 33.8151 8.26206 33.9949 7.66295C34.1744 7.06369 34.4513 6.53552 34.8256 6.0787C35.1998 5.62174 35.675 5.26216 36.2514 4.99997C36.8277 4.73777 37.5126 4.62919 38.3059 4.67411V4.2247C37.6173 4.20987 37.0149 4.28459 36.4984 4.4494C35.9819 4.61422 35.5366 4.83893 35.1624 5.12365C34.7881 5.40823 34.4888 5.74151 34.2643 6.12361C34.0399 6.50511 33.8734 6.91783 33.7702 7.34828H33.7254V4.49432H33.2763V16.045L33.7254 16.0449ZM38.8672 10.3595H48.5222C48.5523 9.5655 48.4737 8.80156 48.2865 8.06744C48.0995 7.33331 47.8 6.68159 47.3884 6.11242C46.9767 5.54311 46.4454 5.08615 45.7942 4.74154C45.143 4.39694 44.3683 4.2247 43.4703 4.2247C42.8265 4.2247 42.1978 4.35958 41.5841 4.62933C40.9704 4.89894 40.4314 5.29211 39.9674 5.80895C39.5034 6.32579 39.1292 6.95876 38.8448 7.70799C38.5605 8.45696 38.4182 9.31085 38.4182 10.2697C38.4182 11.1236 38.5155 11.9214 38.7101 12.6629C38.9047 13.4045 39.204 14.0488 39.6082 14.5955C40.0125 15.1423 40.5326 15.5656 41.1687 15.8651C41.8048 16.1648 42.5721 16.3071 43.4703 16.2921C44.7875 16.2921 45.8952 15.9212 46.7933 15.1798C47.6915 14.4381 48.2229 13.3933 48.3876 12.0449H47.9386C47.744 13.3184 47.2461 14.2735 46.4454 14.9101C45.6444 15.5468 44.6379 15.8651 43.4253 15.8651C42.602 15.8651 41.9059 15.7228 41.3371 15.4382C40.7684 15.1537 40.3042 14.764 39.9449 14.2697C39.5858 13.7752 39.32 13.1947 39.1479 12.528C38.9757 11.8615 38.8822 11.1386 38.8672 10.3595ZM48.0732 9.91011H38.8674C38.9121 9.10112 39.0618 8.37455 39.3163 7.73038C39.5708 7.08608 39.9038 6.53552 40.3155 6.0787C40.7271 5.62174 41.2062 5.27349 41.7525 5.03369C42.2989 4.79401 42.8865 4.67411 43.5151 4.67411C44.2636 4.67411 44.9221 4.81276 45.4911 5.08993C46.0598 5.3671 46.5351 5.74542 46.9169 6.22477C47.2986 6.70412 47.5867 7.26223 47.7813 7.89884C47.9759 8.53559 48.0732 9.20606 48.0732 9.91011ZM57.8406 7.91017H58.2896C58.2896 6.62171 57.9154 5.6854 57.167 5.10112C56.4184 4.51684 55.4005 4.2247 54.1133 4.2247C53.3947 4.2247 52.7885 4.31466 52.2945 4.49445C51.8005 4.67411 51.3964 4.90636 51.082 5.19095C50.7677 5.47554 50.5432 5.7902 50.4084 6.13481C50.2736 6.47941 50.2063 6.80905 50.2063 7.12358C50.2063 7.75277 50.3185 8.25465 50.5432 8.62919C50.7677 9.00374 51.1194 9.29588 51.5984 9.50561C51.9278 9.65533 52.3019 9.7902 52.7211 9.91024C53.1402 10.03 53.6267 10.1573 54.1806 10.2921C54.6745 10.4121 55.161 10.5319 55.6401 10.6517C56.1191 10.7716 56.542 10.9326 56.9087 11.1348C57.2755 11.3371 57.5748 11.5955 57.8069 11.9102C58.0388 12.2247 58.1549 12.6367 58.1549 13.146C58.1549 13.6405 58.039 14.06 57.8069 14.4044C57.5768 14.7472 57.274 15.035 56.92 15.2473C56.5607 15.4644 56.1602 15.6217 55.7187 15.7191C55.2771 15.8164 54.8468 15.8651 54.4277 15.8651C53.0654 15.8651 52.0213 15.5618 51.2953 14.9551C50.5693 14.3483 50.2064 13.3933 50.2064 12.0898H49.7572C49.7572 13.5431 50.1502 14.6067 50.936 15.281C51.722 15.9551 52.8858 16.2921 54.4277 16.2921C54.9216 16.2921 55.4193 16.2359 55.9209 16.1235C56.4222 16.0112 56.8714 15.8278 57.268 15.573C57.6612 15.3218 57.9915 14.9836 58.2334 14.5843C58.4805 14.1797 58.604 13.6854 58.604 13.1011C58.604 12.5468 58.4954 12.0974 58.2785 11.7528C58.0613 11.4083 57.777 11.1236 57.4251 10.8989C57.0734 10.6742 56.6768 10.4982 56.2351 10.3708C55.791 10.2428 55.3456 10.1191 54.8991 9.99993C54.3495 9.85562 53.7994 9.71333 53.2487 9.57305C52.7773 9.45315 52.3395 9.31085 51.9353 9.14604C51.5461 8.98122 51.2355 8.74532 51.0034 8.43821C50.7713 8.1311 50.6554 7.69289 50.6554 7.12358C50.6554 7.01878 50.6853 6.83144 50.7452 6.56182C50.805 6.29207 50.9473 6.01868 51.1719 5.74151C51.3964 5.46448 51.7406 5.21725 52.2047 4.99997C52.6687 4.78282 53.3049 4.67411 54.1133 4.67411C54.6671 4.67411 55.1722 4.73413 55.6288 4.8539C56.0854 4.9738 56.4784 5.16478 56.8076 5.42698C57.137 5.68918 57.3914 6.02246 57.5711 6.42695C57.7507 6.83157 57.8406 7.32589 57.8406 7.91017ZM68.2365 7.91017H68.6856C68.6856 6.62171 68.3115 5.6854 67.563 5.10112C66.8145 4.51684 65.7966 4.2247 64.5092 4.2247C63.7908 4.2247 63.1845 4.31466 62.6905 4.49445C62.1965 4.67411 61.7923 4.90636 61.4781 5.19095C61.1636 5.47554 60.9391 5.7902 60.8044 6.13481C60.6696 6.47941 60.6023 6.80905 60.6023 7.12358C60.6023 7.75277 60.7146 8.25465 60.9393 8.62919C61.1636 9.00374 61.5155 9.29588 61.9945 9.50561C62.3238 9.65533 62.698 9.7902 63.1171 9.91024C63.5362 10.03 64.0227 10.1573 64.5766 10.2921C65.0706 10.4121 65.5571 10.5319 66.0361 10.6517C66.5152 10.7716 66.9379 10.9326 67.3048 11.1348C67.6715 11.3371 67.9709 11.5955 68.2029 11.9102C68.4349 12.2247 68.551 12.6367 68.551 13.146C68.551 13.6405 68.4349 14.06 68.2029 14.4044C67.9728 14.7472 67.67 15.035 67.3161 15.2473C66.9567 15.4644 66.5563 15.6217 66.1147 15.7191C65.6732 15.8164 65.2427 15.8651 64.8236 15.8651C63.4614 15.8651 62.4174 15.5618 61.6914 14.9551C60.9653 14.3483 60.6023 13.3933 60.6023 12.0898H60.1533C60.1533 13.5431 60.5462 14.6067 61.3321 15.281C62.1179 15.9551 63.2818 16.2921 64.8236 16.2921C65.3177 16.2921 65.8153 16.2359 66.3168 16.1235C66.8181 16.0112 67.2673 15.8278 67.6641 15.573C68.0573 15.3218 68.3876 14.9836 68.6295 14.5843C68.8766 14.1797 69 13.6854 69 13.1011C69 12.5468 68.8915 12.0974 68.6744 11.7528C68.4574 11.4083 68.1731 11.1236 67.8212 10.8989C67.4695 10.6742 67.0727 10.4982 66.6312 10.3708C66.1871 10.2428 65.7417 10.1191 65.2952 9.99993C64.7456 9.85562 64.1954 9.71333 63.6448 9.57305C63.1733 9.45315 62.7354 9.31085 62.3313 9.14604C61.942 8.98122 61.6314 8.74532 61.3995 8.43821C61.1674 8.1311 61.0514 7.69289 61.0514 7.12358C61.0514 7.01878 61.0813 6.83144 61.1413 6.56182C61.2011 6.29207 61.3434 6.01868 61.5678 5.74151C61.7923 5.46448 62.1367 5.21725 62.6007 4.99997C63.0648 4.78282 63.7009 4.67411 64.5093 4.67411C65.0632 4.67411 65.5683 4.73413 66.0249 4.8539C66.4815 4.9738 66.8743 5.16478 67.2037 5.42698C67.5331 5.68918 67.7875 6.02246 67.9672 6.42695C68.1468 6.83157 68.2365 7.32589 68.2365 7.91017Z" fill="white"/>
</svg>
