<svg width="52" height="52" viewBox="0 0 52 52" fill="none" xmlns="http://www.w3.org/2000/svg">
<g clip-path="url(#clip0_39_2548)">
<path d="M46.0826 51.9991H5.91528C2.64773 51.9991 0 49.3514 0 46.0839V5.9165C0 2.64895 2.64773 0.0012207 5.91528 0.0012207H46.0847C49.3502 0.0012207 52 2.64895 52 5.9165V46.0859C51.9979 49.3514 49.3502 51.9991 46.0826 51.9991Z" fill="white"/>
<path d="M26.1986 3.96121L27.1887 5.82066C27.4112 6.16384 27.6525 6.46751 27.9354 6.75038C28.7673 7.57195 29.5432 8.44967 30.2566 9.37732C31.933 11.5779 33.0645 14.0238 33.8715 16.6695C34.3561 18.2835 34.6182 19.9433 34.639 21.6176C34.7201 26.6281 33.0021 30.9294 29.5411 34.5048C28.9795 35.0705 28.3701 35.5926 27.7211 36.0585C27.378 36.0585 27.2157 35.7964 27.0743 35.5531C26.8164 35.1038 26.6458 34.6109 26.5689 34.0992C26.4462 33.4919 26.3671 32.8866 26.4066 32.2626V31.9798C26.3796 31.9153 26.078 4.10473 26.1986 3.96121Z" fill="#599636"/>
<path d="M26.1986 3.9009C26.1591 3.81978 26.1175 3.8801 26.0759 3.9217C26.0967 4.32728 25.9532 4.68919 25.7327 5.03445C25.4894 5.37764 25.167 5.64179 24.8425 5.92466C23.0476 7.47835 21.6332 9.3586 20.5017 11.4593C18.9938 14.2859 18.218 17.3164 17.9996 20.509C17.8998 21.6592 18.3636 25.7192 18.7276 26.8902C19.7176 30.0018 21.4939 32.6079 23.7984 34.8688C24.3641 35.4137 24.9694 35.9191 25.5934 36.4058C25.7764 36.4058 25.7951 36.2436 25.8367 36.123C25.9178 35.8651 25.9782 35.603 26.0198 35.3368L26.4253 32.3084L26.1986 3.9009Z" fill="#6CAC48"/>
<path d="M27.1887 37.2856C27.2282 36.8218 27.4508 36.4391 27.6941 36.0543C27.4508 35.9545 27.2698 35.7527 27.1284 35.5302C27.0057 35.318 26.9058 35.0955 26.8268 34.8625C26.5439 34.016 26.4836 33.1237 26.4025 32.2585V31.7343C26.3026 31.8154 26.2798 32.5018 26.2798 32.6037C26.2215 33.521 26.0988 34.4299 25.9158 35.3305C25.8555 35.6945 25.8159 36.0585 25.5913 36.3808C25.5913 36.4204 25.5913 36.462 25.6121 36.5223C25.9761 37.5934 26.0759 38.6833 26.1362 39.7961V40.2017C26.1362 40.6863 26.1154 40.5844 26.519 40.7466C26.6812 40.8069 26.8621 40.8277 27.0244 40.9483C27.1471 40.9483 27.1658 40.8485 27.1658 40.7653L27.1055 40.0977V38.2382C27.0868 37.9137 27.1471 37.5914 27.1887 37.2856Z" fill="#C2BFBF"/>
<path d="M9.96963 46.3093V47.2077C9.96963 47.2438 9.96963 47.28 9.97601 47.3139C9.98662 47.4201 10.0525 47.486 10.148 47.5157C10.2373 47.5391 10.3286 47.556 10.4199 47.5688C10.473 47.5752 10.49 47.5985 10.4963 47.6559C10.5027 47.8576 10.4857 47.881 10.2903 47.8683C9.83583 47.8449 9.3792 47.8385 8.9247 47.8683H8.88223C8.73992 47.8746 8.72931 47.8619 8.72931 47.7196C8.72931 47.6962 8.73568 47.6665 8.73568 47.6431C8.73568 47.6007 8.76542 47.5773 8.80577 47.5773C8.90134 47.5667 8.98841 47.5412 9.07761 47.5242C9.20079 47.4945 9.273 47.418 9.28363 47.2927C9.30062 47.1568 9.30062 47.0145 9.30062 46.8785L9.30699 45.2942C9.31123 45.2007 9.26027 45.1136 9.17743 45.069C9.07125 45.0096 8.95654 44.9628 8.83973 44.9267C8.80363 44.9161 8.76964 44.9097 8.73992 44.8906C8.65283 44.8482 8.65071 44.7717 8.73355 44.725C8.7633 44.708 8.79938 44.6952 8.83337 44.6889C9.19182 44.6358 9.54402 44.5469 9.88468 44.4234C9.95478 44.4 9.97387 44.4064 9.98026 44.4765C9.98662 44.5189 9.98026 44.572 9.97387 44.6124C9.96326 44.6889 9.96326 44.7653 9.96326 44.8375C9.96326 44.8673 9.96963 44.897 9.99937 44.914C10.0291 44.931 10.0588 44.914 10.0864 44.897C10.2096 44.8014 10.3349 44.7143 10.4709 44.6379C10.6663 44.5317 10.8723 44.4361 11.0974 44.4064C11.3692 44.3703 11.605 44.4425 11.8131 44.6188C11.8981 44.6952 11.9745 44.7823 12.0383 44.8779C12.0977 44.965 12.1041 44.9671 12.1806 44.9076C12.4057 44.742 12.6414 44.5954 12.8963 44.4871C13.1618 44.3745 13.4336 44.3575 13.7055 44.451C13.9837 44.5508 14.1727 44.7462 14.2853 45.0117C14.3809 45.2241 14.4212 45.4449 14.4212 45.6743V47.2587C14.4212 47.3649 14.4637 47.4307 14.5699 47.4838C14.6825 47.5263 14.8056 47.5497 14.9246 47.5731C15.001 47.59 15.001 47.59 15.001 47.6686C14.9904 47.864 14.9713 47.8746 14.7823 47.864C14.3084 47.8364 13.8332 47.8364 13.3593 47.864C13.2637 47.8704 13.2637 47.8704 13.2595 47.7748V47.7451C13.2531 47.5858 13.2531 47.5858 13.4081 47.5497L13.5611 47.5072C13.6673 47.4817 13.7437 47.3862 13.7437 47.2757L13.7607 46.8318L13.7501 45.6743C13.7458 45.5703 13.7246 45.4683 13.6843 45.3728C13.5356 45.0117 13.2106 44.8821 12.8984 44.9182C12.6627 44.9416 12.4545 45.0372 12.2591 45.1731C12.2167 45.2028 12.189 45.2389 12.1933 45.2963C12.2464 45.6743 12.2103 46.0524 12.2167 46.4304V47.2524C12.2167 47.401 12.2762 47.4711 12.4184 47.5072L12.6903 47.5667C12.7328 47.5731 12.7561 47.59 12.7561 47.6368V47.6792C12.7497 47.8449 12.7391 47.8513 12.5735 47.8513C12.0999 47.8279 11.6284 47.8343 11.1611 47.8513C11.0018 47.8577 10.9891 47.8407 10.9954 47.6793C11.0018 47.5837 11.0124 47.5794 11.1016 47.5603L11.297 47.5242C11.4691 47.4881 11.5328 47.4244 11.5455 47.2396L11.5625 46.8424L11.5519 45.6552C11.5413 45.5065 11.5094 45.3664 11.4287 45.2304C11.3098 45.0117 11.125 44.8991 10.8723 44.8885C10.6174 44.8715 10.3944 44.965 10.1799 45.0839C10.0312 45.171 9.96753 45.2729 9.97814 45.445V46.3072L9.96963 46.3093ZM21.105 46.3455V47.178C21.105 47.2375 21.1092 47.2969 21.1156 47.3543C21.1199 47.435 21.1793 47.503 21.2579 47.52C21.3599 47.5497 21.4639 47.5667 21.5701 47.5731C21.6296 47.5794 21.6402 47.6028 21.6466 47.6495V47.692C21.6402 47.898 21.6168 47.9235 21.4151 47.9108C20.9648 47.881 20.5167 47.8874 20.0685 47.9108L19.8965 47.9171C19.8604 47.9171 19.854 47.9001 19.8434 47.8746C19.8264 47.7927 19.8264 47.7081 19.8434 47.6262C19.8498 47.59 19.8732 47.5837 19.9093 47.5731C19.9963 47.5624 20.0686 47.5433 20.1514 47.5306C20.3001 47.4945 20.3531 47.435 20.3574 47.2821L20.3744 46.7851V45.3303C20.3744 45.2241 20.3319 45.1582 20.2385 45.1115C20.1323 45.052 20.0197 45.0117 19.9008 44.9692C19.8647 44.9586 19.8307 44.9459 19.8009 44.9267C19.7245 44.8736 19.7139 44.7972 19.7903 44.7377C19.8243 44.7101 19.8647 44.6931 19.9093 44.691C20.2873 44.6315 20.6547 44.5487 21.0094 44.4064C21.0519 44.3894 21.0689 44.4 21.0859 44.4361C21.1028 44.4722 21.1092 44.5126 21.1029 44.5551L21.0859 44.8333C21.0859 44.8694 21.0689 44.9204 21.0965 44.9331C21.1326 44.9565 21.156 44.9034 21.1857 44.8906C21.3599 44.744 21.5527 44.6212 21.7591 44.5253C21.9418 44.4382 22.1308 44.383 22.3432 44.3958C22.7404 44.4191 23.0228 44.6209 23.2055 44.9692C23.3011 45.1519 23.3414 45.3536 23.3584 45.5596L23.3754 45.9929L23.3818 47.2991C23.3881 47.3989 23.4242 47.4647 23.5241 47.5008C23.628 47.5348 23.7346 47.5604 23.8426 47.5773C23.9382 47.5879 23.9425 47.607 23.9488 47.6962V47.726C23.9382 47.9277 23.9255 47.932 23.7237 47.9214C23.283 47.898 22.8413 47.898 22.4005 47.9214C22.3411 47.9277 22.2816 47.9214 22.2285 47.9277C22.1924 47.9277 22.169 47.9214 22.1627 47.8853C22.1521 47.8088 22.1393 47.7323 22.1563 47.6495C22.1627 47.6134 22.1797 47.5964 22.2221 47.59L22.494 47.5476C22.5896 47.5242 22.6427 47.4605 22.6533 47.3755L22.6639 47.2099L22.6575 45.9738C22.6575 45.8315 22.6512 45.6892 22.6214 45.549C22.5513 45.2453 22.3198 45.0308 22.0076 44.9989C21.7358 44.9692 21.4894 45.0414 21.2622 45.188C21.1496 45.258 21.1029 45.36 21.1029 45.4832V46.3752C21.1029 46.3582 21.1029 46.3582 21.1092 46.3582L21.105 46.3455Z" fill="#47474A"/>
<path d="M38.4123 44.674C38.3465 44.2429 38.1872 43.8585 37.9089 43.5207C37.6668 43.2234 37.3546 42.9919 36.9978 42.8475C36.6261 42.6946 36.229 42.6457 35.8276 42.6351C35.6619 42.6287 33.4043 42.6648 33.2386 42.6351C33.1961 42.6287 33.1685 42.6415 33.143 42.6776C33.1133 42.7201 33.0835 42.7668 33.0666 42.8135C32.9965 42.9728 32.9965 42.9622 33.1664 42.9855C33.3087 43.0089 33.4446 43.0217 33.5805 43.062C33.7037 43.1045 33.7929 43.1746 33.8226 43.3105C33.8333 43.3763 33.846 45.4556 33.846 46.4241L33.8227 47.1164C33.8163 47.1695 33.812 47.2226 33.7929 47.2694C33.7696 47.3395 33.7271 47.3989 33.657 47.4286C33.5784 47.4647 33.4956 47.4881 33.4085 47.4945C33.2492 47.5115 33.2258 47.5178 33.1727 47.6962L33.1558 47.7621C33.1451 47.8386 33.1494 47.8513 33.2258 47.8513L34.9929 47.8683L35.6853 47.8577L36.1631 47.7982C36.7068 47.6984 37.1911 47.4732 37.6052 47.1122C37.841 46.904 38.0342 46.6513 38.1723 46.3667C38.3379 46.0354 38.408 45.6743 38.4272 45.309C38.459 45.0988 38.4484 44.8864 38.4123 44.674ZM37.5564 45.5129C37.533 45.891 37.4565 46.2584 37.2612 46.5876C37.0127 47.0187 36.658 47.3203 36.1674 47.4265C35.955 47.469 35.7426 47.4924 35.5196 47.4626C35.3603 47.4456 35.2074 47.4265 35.0587 47.3734C34.7933 47.2778 34.6977 47.1143 34.6934 46.8552L34.687 43.2914C34.687 43.079 34.7826 43.0323 34.9355 43.0259C35.167 43.0089 35.4028 43.0153 35.6322 43.0365C35.8785 43.0599 36.1185 43.1193 36.3479 43.2086C36.5178 43.2786 36.675 43.3763 36.8152 43.4974C37.1337 43.7692 37.3461 44.1112 37.4629 44.5126C37.5585 44.8375 37.5755 45.1689 37.5585 45.5002L37.5564 45.5129ZM43.3248 46.0927C43.3248 46.0566 43.3248 46.0269 43.3184 45.9929C43.2653 45.668 43.0933 45.4195 42.8278 45.2305C42.6558 45.1073 42.4625 45.0244 42.2607 44.965C42.2246 44.9544 42.1949 44.9416 42.1609 44.9352C42.1673 44.9055 42.1843 44.8991 42.2034 44.8928C42.3223 44.8333 42.4349 44.7696 42.5347 44.6804C42.7173 44.5275 42.8384 44.3384 42.9 44.107C42.9361 43.9838 42.9361 43.8584 42.9234 43.7289C42.9042 43.4209 42.745 43.1385 42.4922 42.9601C42.2204 42.7583 41.9018 42.6755 41.5705 42.6712C40.9312 42.6606 40.2877 42.6712 39.6505 42.6712C39.4678 42.6712 39.2852 42.6818 39.0941 42.6542C39.058 42.6479 39.007 42.6372 38.9815 42.6776C38.939 42.7541 38.8859 42.8305 38.8689 42.9197C38.8625 42.9622 38.8753 42.9855 38.922 42.9898L39.3298 43.0493C39.4891 43.0726 39.6016 43.1618 39.6144 43.3041C39.625 43.4018 39.6314 43.5016 39.6314 43.5993L39.6208 44.7037L39.6144 46.8892C39.6144 47.0187 39.5974 47.144 39.5719 47.2736C39.5592 47.3586 39.4997 47.4265 39.419 47.4499C39.3001 47.486 39.1875 47.52 39.0643 47.52C38.9963 47.5136 38.9326 47.5561 38.9114 47.6198C38.888 47.6729 38.8689 47.7324 38.8583 47.7855C38.8477 47.8555 38.8647 47.881 38.9348 47.8725C38.9879 47.8662 40.9376 47.915 41.305 47.8789C41.5237 47.8555 41.7382 47.8258 41.9549 47.76C42.3266 47.641 42.6706 47.4711 42.9425 47.1802C43.1676 46.9444 43.2972 46.6598 43.3078 46.3285C43.3248 46.252 43.3248 46.1756 43.3248 46.0927ZM40.4576 43.6694L40.4746 43.1958C40.4746 43.1066 40.5106 43.0662 40.5977 43.0471C40.74 43.0174 40.8823 43.0301 41.0225 43.0365C41.1648 43.0471 41.3007 43.0663 41.443 43.1066C41.7022 43.1831 41.9039 43.3317 42.0229 43.5802C42.0759 43.6928 42.1057 43.816 42.1057 43.9413C42.112 44.1069 42.0993 44.2662 42.0356 44.4255C41.9357 44.6443 41.7765 44.7866 41.545 44.8269C41.3135 44.8694 40.6593 44.8503 40.5574 44.8503C40.4682 44.8503 40.4618 44.8397 40.4618 44.7505V44.194C40.4469 44.022 40.4469 43.8478 40.4554 43.6737L40.4576 43.6694ZM42.3775 46.8488C42.2777 47.1143 42.0929 47.2991 41.8338 47.3989C41.6915 47.452 41.5492 47.486 41.4006 47.4754C41.2179 47.469 41.0352 47.4754 40.8505 47.4393C40.602 47.3862 40.4894 47.1504 40.4724 46.9784C40.4427 46.6768 40.4618 46.3688 40.4554 46.1458V45.3664C40.4554 45.2708 40.4661 45.2432 40.568 45.2432L41.1245 45.2496L41.5025 45.292C41.768 45.3515 42.0101 45.4513 42.1991 45.6573C42.352 45.823 42.4349 46.0227 42.454 46.2414C42.471 46.4474 42.4604 46.6492 42.3839 46.8446L42.3775 46.8488Z" fill="#C2BFBF"/>
<path d="M27.3619 45.069L27.5148 45.0924C27.6804 45.0988 27.8759 45.0393 27.9353 44.8078C27.9672 44.6975 27.9672 44.5804 27.9353 44.4701C27.8992 44.4701 27.8822 44.4999 27.8652 44.5126C27.776 44.5827 27.6762 44.6252 27.57 44.6358C27.3576 44.6591 27.1452 44.6464 26.9371 44.5699L26.6483 44.4701C26.4465 44.4043 26.2341 44.3767 26.0217 44.3873C25.7201 44.4106 25.4377 44.5105 25.1701 44.6528C24.8855 44.8057 24.6858 45.0372 24.5903 45.3494C24.5372 45.532 24.5308 45.7211 24.5541 45.9101C24.6136 46.3412 24.8387 46.6428 25.2401 46.8021C25.2635 46.8085 25.2826 46.8191 25.306 46.8255C25.3591 46.8552 25.3655 46.8849 25.3166 46.9253L25.168 47.0251L24.8133 47.2439C24.7241 47.297 24.7134 47.3394 24.7432 47.4329C24.7793 47.5433 24.843 47.641 24.9322 47.7175C25.0129 47.7876 25.1042 47.8428 25.204 47.8831C25.2699 47.9129 25.2699 47.9256 25.2104 47.9787L24.8727 48.2208C24.7602 48.3079 24.6476 48.3929 24.5541 48.5054C24.4884 48.5753 24.441 48.6604 24.4162 48.753C24.3914 48.8457 24.3899 48.943 24.4118 49.0364C24.4565 49.2424 24.5626 49.4272 24.7198 49.5674C24.8732 49.7101 25.0602 49.8117 25.2635 49.8626C25.5948 49.9581 25.9368 49.9624 26.2745 49.8987C26.7587 49.8095 27.1835 49.595 27.5148 49.2318C27.7463 48.9897 27.8801 48.7051 27.8928 48.3674C27.9205 47.9617 27.6486 47.5985 27.2536 47.5051L26.935 47.4456L25.9601 47.3585C25.8539 47.3522 25.7478 47.3352 25.6585 47.2821C25.546 47.212 25.5163 47.0761 25.5884 46.9869C25.6416 46.921 25.7074 46.8807 25.7902 46.8743L25.9792 46.8573C26.3528 46.8193 26.7035 46.6596 26.9775 46.4028C27.1237 46.2671 27.2284 46.0925 27.279 45.8995C27.3491 45.6446 27.3491 45.3813 27.2897 45.1221C27.2727 45.0563 27.279 45.052 27.3597 45.0626L27.3619 45.069ZM25.9134 48.0127C25.9495 48.0191 25.9835 48.0127 26.0196 48.0127C26.2681 48.0233 26.523 48.0424 26.7651 48.1083C26.8437 48.1316 26.9222 48.1614 26.9966 48.1975C27.2323 48.327 27.3215 48.5522 27.2918 48.7943C27.2557 49.0598 27.1091 49.2488 26.8776 49.3741C26.7247 49.4612 26.5527 49.4973 26.3743 49.5164C26.3085 49.5228 26.2511 49.5164 26.1853 49.5164C25.9792 49.5228 25.7775 49.4994 25.5821 49.4166C25.4462 49.3635 25.3336 49.287 25.2338 49.1808C25.0278 48.9748 24.9301 48.5968 25.2401 48.2888C25.4292 48.1125 25.6416 47.9893 25.9134 48.0127ZM26.5888 46.1692C26.4656 46.4814 26.1916 46.577 25.9219 46.5345C25.6734 46.4984 25.4908 46.3625 25.3718 46.1373C25.2189 45.8358 25.1764 45.5236 25.2656 45.1986C25.3315 44.9565 25.478 44.7738 25.7392 44.7313C26.0706 44.6719 26.387 44.7908 26.5548 45.1221C26.6419 45.2814 26.678 45.4768 26.678 45.7551C26.6716 45.8676 26.6482 46.0205 26.5888 46.1692ZM19.1426 45.7657C19.0895 45.4471 18.9705 45.1561 18.7518 44.914C18.4268 44.5529 18.0127 44.3958 17.5454 44.3936C17.1377 44.3873 16.7532 44.5062 16.4113 44.7186C16.0736 44.9204 15.8273 45.2432 15.7189 45.6234C15.6191 45.9653 15.6233 46.3157 15.7019 46.6641C15.9079 47.5986 16.6301 47.9999 17.4923 47.9405C17.7472 47.9235 17.9893 47.8407 18.2187 47.7281C18.5606 47.5688 18.8091 47.3139 18.9812 46.9784C19.1171 46.7002 19.1765 46.4049 19.1702 46.0672L19.1426 45.7657ZM18.3036 47.0782C18.2166 47.3501 17.9787 47.5454 17.6941 47.5752C17.435 47.6113 17.1908 47.5454 16.9741 47.3925C16.817 47.2757 16.6895 47.1249 16.6024 46.9487C16.3603 46.4517 16.3178 45.9334 16.4432 45.4004C16.4835 45.2347 16.5685 45.086 16.6916 44.9692C16.9104 44.7674 17.1653 44.7207 17.4477 44.7802C17.7196 44.8397 17.9256 44.9862 18.0955 45.2113C18.2654 45.4365 18.344 45.6956 18.3907 45.9674C18.4141 46.1034 18.4141 46.2456 18.4205 46.3327C18.4205 46.6173 18.3971 46.851 18.3079 47.0782H18.3036ZM32.0556 45.8145C32.0131 45.4726 31.8836 45.1582 31.6414 44.8991C31.3229 44.5508 30.9087 44.4021 30.4478 44.3958C30.0507 44.3894 29.6854 44.502 29.3477 44.6974C28.9696 44.9225 28.7084 45.2411 28.6086 45.6722C28.4896 46.1437 28.5385 46.6407 28.7509 47.0782C28.9463 47.4923 29.2776 47.7578 29.7151 47.8768C30.1993 48.0063 30.6602 47.9469 31.1105 47.7281C31.5013 47.5391 31.7774 47.2439 31.9388 46.8425C32.0344 46.6067 32.0683 46.3518 32.0747 46.0566C32.079 46.0035 32.0662 45.908 32.0556 45.8145ZM31.24 47.0017C31.1445 47.3203 30.9448 47.5285 30.6071 47.5752C30.3586 47.6113 30.1229 47.5518 29.9105 47.4095C29.7279 47.2863 29.5983 47.1207 29.5027 46.9253C29.3965 46.7193 29.3371 46.5005 29.3137 46.2754C29.2776 45.9972 29.2776 45.7253 29.3434 45.4471C29.3562 45.3919 29.3732 45.3388 29.3965 45.2878C29.5622 44.8736 29.9275 44.6846 30.3608 44.7802C30.6496 44.846 30.8684 45.0053 31.034 45.2474C31.1933 45.4832 31.2698 45.7444 31.3059 46.0248C31.3229 46.1373 31.3292 46.2563 31.3229 46.3561C31.3229 46.5876 31.3059 46.8 31.2358 47.006L31.24 47.0017Z" fill="#47474A"/>
</g>
<defs>
<clipPath id="clip0_39_2548">
<rect width="52" height="52" fill="white"/>
</clipPath>
</defs>
</svg>
