<svg width="52" height="52" viewBox="0 0 52 52" fill="none" xmlns="http://www.w3.org/2000/svg">
<g clip-path="url(#clip0_1023_2)">
<path d="M0 0C17.16 0 34.32 0 52 0C52 17.16 52 34.32 52 52C34.84 52 17.68 52 0 52C0 34.84 0 17.68 0 0Z" fill="black"/>
<path d="M16.8711 16.8711C17.7863 16.8711 18.7015 16.8711 19.6444 16.8711C20.301 17.5769 20.7399 18.1367 21.214 18.9483C21.6611 19.6927 22.1507 20.4081 22.6341 21.1292C23.3688 22.2278 24.091 23.3347 24.8155 24.44C25.3997 25.3297 25.9842 26.2191 26.5687 27.1086C26.7109 27.325 26.853 27.5414 26.9995 27.7644C28.0587 29.3764 29.1249 30.9835 30.1975 32.5867C31.2264 34.1249 32.2534 35.6644 33.2807 37.2036C33.5581 37.6192 33.8357 38.0347 34.1133 38.4501C36.0922 41.4116 38.0485 44.3866 39.9822 47.3778C44.559 45.6062 47.7928 40.5991 49.7193 36.3027C50.2858 34.9461 50.6924 33.5418 51.0755 32.1244C51.1298 31.9248 51.184 31.7252 51.2398 31.5196C51.5645 30.1972 51.6726 28.858 51.7689 27.5022C51.8451 27.5022 51.9214 27.5022 52 27.5022C52 35.5865 52 43.6708 52 52C43.9157 52 35.8314 52 27.5022 52C27.5022 51.9237 27.5022 51.8475 27.5022 51.7689C27.7122 51.7462 27.9223 51.7236 28.1387 51.7003C31.327 51.3209 34.2645 50.5147 37.2206 49.2664C37.9022 48.9956 37.9022 48.9956 38.3644 48.9956C37.0706 46.8596 35.611 44.855 34.1401 42.8394C33.5038 41.9662 32.872 41.0896 32.24 40.2133C31.4869 39.1701 30.7334 38.1271 29.9785 37.0852C28.6423 35.2399 27.3163 33.3881 26.006 31.5243C25.0382 30.1497 24.0554 28.7864 23.0655 27.4277C21.9764 25.9279 20.9317 24.4056 19.8755 22.88C19.7993 27.6848 19.723 32.4896 19.6444 37.44C18.7292 37.44 17.814 37.44 16.8711 37.44C16.8711 30.6523 16.8711 23.8645 16.8711 16.8711Z" fill="#FBFBFB"/>
<path d="M0 27.04C0.0762667 27.04 0.152533 27.04 0.231111 27.04C0.256434 27.3081 0.281757 27.5763 0.307847 27.8525C0.77427 32.5628 2.00944 37.0349 4.85333 40.9067C4.99008 41.0944 5.12682 41.2821 5.26771 41.4754C9.49252 46.9982 15.3417 50.4142 22.1867 51.5378C22.9562 51.6361 23.7238 51.7161 24.4978 51.7689C24.4978 51.8452 24.4978 51.9214 24.4978 52C16.4135 52 8.32924 52 0 52C0 43.7632 0 35.5264 0 27.04Z" fill="#FCFCFC"/>
<path d="M27.5024 0C35.5867 0 43.671 0 52.0002 0C52.0002 7.7792 52.0002 15.5584 52.0002 23.5733C51.924 23.5733 51.8477 23.5733 51.7691 23.5733C51.738 23.3818 51.738 23.3818 51.7063 23.1865C50.8003 17.7396 49.097 12.9166 45.298 8.78222C45.1947 8.66909 45.0913 8.55595 44.9848 8.43939C40.3732 3.44623 34.2376 0.726154 27.5024 0.231111C27.5024 0.154844 27.5024 0.0785778 27.5024 0Z" fill="#FCFCFC"/>
<path d="M0 0C8.08427 0 16.1685 0 24.4978 0C24.4978 0.0762667 24.4978 0.152533 24.4978 0.231111C24.2711 0.253753 24.0443 0.276394 23.8108 0.299722C16.7185 1.06126 10.7451 4.11174 6.00889 9.47556C2.70834 13.5973 1.16776 18.2185 0.231111 23.3422C0.154844 23.3422 0.0785778 23.3422 0 23.3422C0 15.6393 0 7.93636 0 0Z" fill="#FCFCFC"/>
<path d="M31.8935 17.1022C32.885 17.1022 33.8765 17.1022 34.898 17.1022C34.898 22.6697 34.898 28.2372 34.898 33.9733C34.0323 33.1076 33.491 32.4962 32.8757 31.4889C32.4388 30.7254 32.4388 30.7254 31.8935 30.0444C31.8719 29.6402 31.8664 29.235 31.8673 28.8301C31.8673 28.5711 31.8673 28.312 31.8673 28.045C31.8685 27.7631 31.8697 27.4812 31.8709 27.1908C31.8713 26.9038 31.8716 26.6169 31.8719 26.3212C31.873 25.5572 31.8751 24.7931 31.8776 24.029C31.88 23.2499 31.8811 22.4707 31.8822 21.6915C31.8848 20.1617 31.8888 18.632 31.8935 17.1022Z" fill="#FCFCFC"/>
</g>
<defs>
<clipPath id="clip0_1023_2">
<rect width="52" height="52" fill="white"/>
</clipPath>
</defs>
</svg>
