<svg width="43" height="47" viewBox="0 0 43 47" fill="none" xmlns="http://www.w3.org/2000/svg">
<path d="M19.4635 0.499251C20.6326 -0.164916 22.1554 -0.167916 23.3236 0.499251C29.2003 3.79492 35.079 7.08542 40.9547 10.3831C42.0599 11.0009 42.7991 12.2216 42.7879 13.4854V33.3134C42.7961 34.6296 41.9838 35.8794 40.8179 36.4832C34.9604 39.7607 29.106 43.0422 23.2495 46.3197C22.0562 46.9969 20.5028 46.9448 19.3468 46.2121C17.5907 45.2018 15.8316 44.1964 14.0754 43.1871C13.7165 42.9748 13.3119 42.8058 13.0585 42.4604C13.2826 42.1608 13.6831 42.1234 14.0085 41.9926C14.7416 41.7612 15.4148 41.3899 16.0882 41.0296C16.2585 40.9139 16.4664 40.9583 16.6296 41.0618C18.1313 41.9163 19.6196 42.7956 21.1263 43.6419C21.4478 43.8261 21.7732 43.5816 22.0479 43.4296C27.7959 40.2054 33.5509 36.9934 39.2979 33.7682C39.5109 33.6666 39.6286 33.4422 39.6113 33.2108C39.6153 26.6699 39.6123 20.1279 39.6133 13.5871C39.6376 13.3244 39.4845 13.0829 39.2452 12.9754C33.408 9.71292 27.5739 6.44542 21.7378 3.18208C21.6367 3.11309 21.5169 3.07608 21.3942 3.0759C21.2715 3.07572 21.1516 3.11239 21.0503 3.18108C15.2141 6.44542 9.38099 9.71592 3.54485 12.9783C3.30639 13.0859 3.14635 13.3234 3.17473 13.5871C3.17574 20.1279 3.17473 26.6699 3.17473 33.2118C3.16461 33.3247 3.18961 33.438 3.24636 33.5364C3.3031 33.6349 3.38888 33.7137 3.49212 33.7623C5.04952 34.6388 6.60894 35.5091 8.16735 36.3826C9.0453 36.8516 10.1233 37.1303 11.0905 36.7709C11.9441 36.4671 12.5425 35.6026 12.5262 34.7031C12.5343 28.2004 12.5222 21.6968 12.5322 15.1951C12.5109 14.9064 12.7868 14.6679 13.0696 14.6951C13.8179 14.6901 14.5672 14.6851 15.3155 14.6971C15.6279 14.6901 15.8429 15.0009 15.8042 15.2918C15.8012 21.8356 15.8123 28.3796 15.7992 34.9234C15.8012 36.6674 15.0793 38.5651 13.4538 39.4184C11.4514 40.4479 8.97645 40.2296 6.99821 39.2424C5.28564 38.3941 3.65132 37.3929 1.96915 36.4841C0.800173 35.8836 -0.00808413 34.6287 0.000144539 33.3136V13.4854C-0.0121145 12.1954 0.75651 10.9526 1.8961 10.3438C7.75256 7.06358 13.608 3.78092 19.4635 0.499251Z" fill="#8CC84B"/>
<path d="M24.5726 14.2342C27.1268 14.0711 29.8613 14.1376 32.1597 15.3864C33.9393 16.3434 34.9259 18.3519 34.9573 20.3141C34.9076 20.5787 34.6288 20.7247 34.3743 20.7066C33.6332 20.7056 32.8919 20.7166 32.1508 20.7016C31.8365 20.7136 31.6538 20.4259 31.6143 20.1501C31.4014 19.2112 30.8855 18.2814 29.9951 17.8286C28.6283 17.1494 27.0435 17.1836 25.5531 17.1977C24.4651 17.2551 23.2951 17.3486 22.3733 17.9836C21.6657 18.4646 21.4507 19.4356 21.7033 20.2176C21.9414 20.7791 22.5945 20.9602 23.1289 21.1272C26.2071 21.9262 29.469 21.8467 32.4884 22.8982C33.7385 23.3269 34.9614 24.1602 35.3892 25.4592C35.949 27.2002 35.7036 29.2812 34.4555 30.6789C33.4434 31.8291 31.9693 32.4551 30.4991 32.7951C28.5432 33.2279 26.5134 33.2389 24.5271 33.0467C22.6593 32.8354 20.7157 32.3484 19.2738 31.0854C18.0409 30.0229 17.4387 28.3674 17.4984 26.7696C17.5127 26.4997 17.7834 26.3116 18.0439 26.3337C18.7902 26.3277 19.5365 26.3257 20.2828 26.3347C20.5808 26.3136 20.8018 26.5692 20.8171 26.8481C20.9548 27.7426 21.2935 28.6814 22.0795 29.2117C23.5962 30.1829 25.4994 30.1164 27.2361 30.1436C28.675 30.0802 30.2902 30.0611 31.4643 29.1172C32.0838 28.5789 32.2674 27.6782 32.1 26.9034C31.9186 26.2492 31.2291 25.9444 30.6369 25.7451C27.5982 24.7911 24.2999 25.1372 21.2905 24.0584C20.0688 23.6299 18.8874 22.8197 18.418 21.5741C17.7631 19.8111 18.0632 17.6304 19.4421 16.2799C20.7865 14.9366 22.7273 14.4194 24.5726 14.2342Z" fill="#8CC84B"/>
</svg>
