<svg width="52" height="52" viewBox="0 0 52 52" fill="none" xmlns="http://www.w3.org/2000/svg">
<g clip-path="url(#clip0_38_2535)">
<path d="M0 0H52V52H0V0Z" fill="#222222"/>
<path d="M25.9597 30.3168C28.3613 30.3168 30.3082 28.3699 30.3082 25.9684C30.3082 23.5668 28.3613 21.6199 25.9597 21.6199C23.5582 21.6199 21.6113 23.5668 21.6113 25.9684C21.6113 28.3699 23.5582 30.3168 25.9597 30.3168Z" fill="#00D8FF"/>
<path d="M25.9599 17.1279C31.7971 17.1279 37.2204 17.9657 41.3087 19.3725C46.2348 21.0682 49.264 23.639 49.264 25.967C49.264 28.3927 46.0537 31.1244 40.7641 32.8762C36.7648 34.2011 31.501 34.8937 25.9599 34.8937C20.2779 34.8937 14.8991 34.2442 10.8539 32.8618C5.7367 31.1129 2.6543 28.3467 2.6543 25.967C2.6543 23.6577 5.54702 21.107 10.4041 19.4142C14.5083 17.9843 20.0652 17.1279 25.9599 17.1279Z" stroke="#00D8FF" stroke-width="2" stroke-miterlimit="10"/>
<path d="M18.2645 21.574C21.1802 16.5171 24.6161 12.2377 27.8782 9.39955C31.8084 5.97944 35.549 4.64014 37.5651 5.80269C39.666 7.0141 40.4291 11.1599 39.3039 16.6191C38.4532 20.7463 36.4241 25.6508 33.655 30.4519C30.8169 35.3737 27.5663 39.7092 24.3488 42.5229C20.2778 46.0824 16.3403 47.3699 14.2796 46.1815C12.2793 45.0276 11.5148 41.2482 12.4733 36.1942C13.2838 31.9205 15.3186 26.6797 18.2645 21.574Z" stroke="#00D8FF" stroke-width="2" stroke-miterlimit="10"/>
<path d="M18.2717 30.4619C15.3473 25.4094 13.3556 20.2965 12.525 16.0529C11.5248 10.94 12.2319 7.0299 14.2466 5.86448C16.3461 4.64876 20.318 6.05847 24.4853 9.7588C27.6367 12.5567 30.8714 16.7643 33.6478 21.561C36.4945 26.4785 38.6285 31.4592 39.4576 35.651C40.5081 40.9565 39.6574 45.0103 37.5981 46.2016C35.5992 47.3584 31.9435 46.1341 28.0434 42.7786C24.7497 39.9434 21.2247 35.5634 18.2717 30.4619Z" stroke="#00D8FF" stroke-width="2" stroke-miterlimit="10"/>
</g>
<defs>
<clipPath id="clip0_38_2535">
<rect width="52" height="52" fill="white"/>
</clipPath>
</defs>
</svg>
