<svg width="80" height="80" viewBox="0 0 80 80" fill="none" xmlns="http://www.w3.org/2000/svg">
<rect width="80" height="80" rx="10" fill="#02136B"/>
<path d="M14.884 43.856L13.288 44.264L12.676 42.344H9.496L8.836 44.288L7.24 43.844L10.984 33.908H11.344L14.884 43.856ZM12.208 40.856L11.14 37.46L10 40.856H12.208ZM25.2611 43.904L23.6171 44.24L22.3211 38.528L20.5331 44.12H20.1011L18.3131 38.528L17.0051 44.24L15.3611 43.904L17.9411 33.896H18.3611L20.3171 39.848L22.2731 33.896H22.6811L25.2611 43.904ZM33.2439 41.312L26.7039 44.252H26.3439V33.776H26.7039L32.8959 36.788L29.8479 38.792L33.2439 41.312ZM30.3519 37.064L27.9039 35.888V38.54L30.3519 37.064ZM30.6399 40.964L27.9039 39.044V42.164L30.6399 40.964ZM41.1404 43.268L39.9764 44.264L37.1204 41.036L35.8844 41.96V44.012H34.3244L34.3364 33.776H34.6964L40.9364 38.324L38.3804 40.148L41.1404 43.268ZM38.3924 38.312L35.8844 36.476V40.256L38.3924 38.312ZM50.8444 38.984L46.2724 44.24H45.9724L41.3884 38.984L45.9724 33.764H46.2724L50.8444 38.984ZM48.8164 38.996L46.1284 35.828L43.4284 38.996L46.1284 42.176L48.8164 38.996ZM57.6107 40.988L52.9067 44.276L51.9827 43.028L55.1987 40.844L51.0227 36.944L55.6547 33.764L56.6267 34.988L53.4347 37.088L57.6107 40.988ZM60.3917 44H58.8077V34.016H60.3917V44ZM69.2356 43.856L67.6396 44.264L67.0276 42.344H63.8476L63.1876 44.288L61.5916 43.844L65.3356 33.908H65.6956L69.2356 43.856ZM66.5596 40.856L65.4916 37.46L64.3516 40.856H66.5596Z" fill="white"/>
</svg>
