<svg width="80" height="80" viewBox="0 0 80 80" fill="none" xmlns="http://www.w3.org/2000/svg">
<rect width="80" height="80" rx="10" fill="black"/>
<path d="M45.8594 22.5417C44.0818 22.645 42.0412 23.6352 40.8279 24.8963C39.7318 26.0433 38.8669 27.7468 39.22 29.3949C41.1517 29.4457 43.0906 28.4298 44.2515 27.1456C45.3353 25.9446 46.1569 24.2683 45.8594 22.5417ZM45.9648 29.3918C43.1759 29.3918 42.0098 31.1051 40.0781 31.1051C38.0909 31.1051 36.2743 29.5002 33.8693 29.5002C30.5979 29.5018 25.625 32.5322 25.625 39.6716C25.625 46.1667 31.5106 53.375 34.8328 53.375C36.8509 53.395 37.3401 52.1062 40.0781 52.0923C42.8192 52.0722 43.4107 53.392 45.4318 53.375C47.7073 53.358 49.4844 50.8575 50.7825 48.8765C51.7136 47.4581 52.0965 46.734 52.818 45.1307C47.4637 43.774 46.3985 35.1397 52.818 33.3544C51.6062 31.287 48.0691 29.3918 45.9648 29.3918Z" fill="white"/>
</svg>
