<svg width="80" height="80" viewBox="0 0 80 80" fill="none" xmlns="http://www.w3.org/2000/svg">
<rect width="80" height="80" rx="10" fill="url(#paint0_linear_292_36)"/>
<path d="M21.853 32.9907C21.8254 33.0848 21.8005 33.1512 21.7783 33.1899C21.4463 33.9204 21.0894 34.4766 20.7075 34.8584C20.4198 35.1517 20.1901 35.3786 20.0186 35.5391C19.847 35.6995 19.7308 35.7992 19.6699 35.8379L17.8188 37C17.5034 36.917 17.1326 36.7703 16.7065 36.5601C16.286 36.3442 15.8626 36.0703 15.4365 35.7383C15.016 35.4062 14.6258 35.0189 14.2661 34.5762C13.9064 34.1335 13.6325 33.641 13.4443 33.0986C13.3005 32.6781 13.187 32.2769 13.104 31.895C13.0265 31.5076 12.9906 31.1203 12.9961 30.7329C12.9961 30.257 13.0597 29.77 13.187 29.272C13.3198 28.7739 13.4997 28.2952 13.7266 27.8359C13.959 27.3766 14.2329 26.9561 14.5483 26.5742C14.8638 26.1868 15.2069 25.8659 15.5776 25.6113L17.4204 24.4243C17.5754 24.4686 17.7635 24.535 17.9849 24.6235C18.2062 24.7121 18.4525 24.8311 18.7236 24.9805C18.9948 25.1299 19.2798 25.3125 19.5786 25.5283C19.883 25.7441 20.1901 26.0015 20.5 26.3003C20.6715 26.4774 20.8293 26.66 20.9731 26.8481L19.3213 27.6616C19.0723 27.3462 18.8177 27.0778 18.5576 26.8564C18.2975 26.6296 18.0208 26.4386 17.7275 26.2837C17.4342 26.1232 17.1188 25.9932 16.7812 25.8936C16.4492 25.7884 16.0812 25.6999 15.6772 25.6279L15.6689 25.6362C15.193 25.9129 14.8306 26.6462 14.5815 27.8359C14.4155 28.6328 14.3325 29.3494 14.3325 29.9858C14.3325 30.3345 14.3685 30.7052 14.4404 31.0981C14.5124 31.491 14.6286 31.884 14.7891 32.2769C14.9551 32.6642 15.1709 33.0461 15.4365 33.4224C15.7021 33.7931 16.0286 34.1362 16.416 34.4517C16.8034 34.7671 17.2572 35.0438 17.7773 35.2817C18.2975 35.5197 18.8952 35.6995 19.5703 35.8213C20.085 35.3675 20.3423 34.6536 20.3423 33.6797C20.3423 33.2314 20.2869 32.8109 20.1763 32.418L21.853 32.9907ZM23.8784 30.0273C24.0223 29.6953 24.2658 29.391 24.6089 29.1143L24.999 28.7988L26.8916 27.6201C27.207 27.7031 27.5972 27.8636 28.062 28.1016C28.5047 28.3285 28.9198 28.63 29.3071 29.0063C29.7941 29.4823 30.1372 29.9941 30.3364 30.542C30.5522 31.0732 30.6685 31.6543 30.6851 32.2852C30.7238 33.8568 30.8262 35.0742 30.9922 35.9375L31.0586 36.2363C30.6823 36.2806 30.3447 36.3581 30.0459 36.4688C29.5645 36.6458 29.2048 36.8229 28.9668 37C29.1771 35.5059 29.2822 34.02 29.2822 32.5425C29.2822 32.4705 29.2822 32.3958 29.2822 32.3184C29.2822 31.6875 29.1826 31.2061 28.9834 30.874C28.6348 30.3594 28.1533 29.9582 27.5391 29.6704C26.9857 29.4103 26.1667 29.1613 25.082 28.9233C24.9935 29.0617 24.9492 29.3024 24.9492 29.6455C24.9492 29.8613 24.9852 30.1436 25.0571 30.4922L23.8784 30.0273ZM27.2153 37C26.8999 36.8893 26.3991 36.6569 25.7129 36.3027C25.1982 36.0371 24.7002 35.6387 24.2188 35.1074C23.8646 34.554 23.6875 34.0422 23.6875 33.5718C23.6875 33.5607 23.6875 33.5469 23.6875 33.5303C23.7705 32.8607 24.0804 32.3184 24.6172 31.9033C25.5247 31.2061 26.6619 30.8519 28.0288 30.8408C26.341 31.4606 25.3643 32.1523 25.0986 32.916C25.0433 33.0765 25.0156 33.2314 25.0156 33.3809C25.0156 33.6354 25.1042 33.8623 25.2812 34.0615C25.7572 34.543 26.1584 34.8639 26.4849 35.0244C27.4865 35.5169 28.311 35.7936 28.9585 35.8545L27.2153 37ZM33.1338 37C33.2389 36.1644 33.3164 35.4062 33.3662 34.7256C33.4215 34.0394 33.4492 33.4196 33.4492 32.8662C33.4492 32.418 33.4437 32.0002 33.4326 31.6128C33.4271 31.2199 33.4132 30.8491 33.3911 30.5005C33.369 30.1463 33.3385 29.806 33.2998 29.4795C33.2666 29.153 33.2251 28.8237 33.1753 28.4917L33.1338 28.3589C33.4714 28.3201 33.8062 28.2427 34.1382 28.1265C34.4757 28.0047 34.8188 27.847 35.1675 27.6533L35.2256 27.6201C35.1702 27.7806 35.1121 27.9577 35.0513 28.1514C34.9904 28.3395 34.9295 28.5387 34.8687 28.749L36.6865 27.6201C36.9079 27.681 37.1818 27.7889 37.5083 27.9438C37.8403 28.0933 38.1751 28.2925 38.5127 28.5415C38.8503 28.785 39.1657 29.0755 39.459 29.4131C39.7578 29.7451 39.9819 30.1214 40.1313 30.542L38.6289 31.1562C38.402 30.7412 38.1419 30.3926 37.8486 30.1104C37.5553 29.8226 37.2537 29.5902 36.9438 29.4131C36.634 29.2305 36.3296 29.1004 36.0308 29.0229C35.7319 28.9399 35.4635 28.8984 35.2256 28.8984C35.1094 28.8984 34.9932 28.9067 34.877 28.9233H34.8687C34.8465 29.1281 34.8299 29.4546 34.8188 29.9028C34.8133 30.3455 34.8105 30.9155 34.8105 31.6128V31.9033C34.8105 33.4583 34.9268 34.8031 35.1592 35.9375L35.2256 36.2363C35.0098 36.264 34.7967 36.3055 34.5864 36.3608C34.3761 36.4162 34.1769 36.4826 33.9888 36.5601C33.8062 36.632 33.6401 36.7067 33.4907 36.7842C33.3413 36.8617 33.2223 36.9336 33.1338 37ZM46.2158 31.3306C45.9391 30.5835 45.4466 29.9831 44.7383 29.5293C44.29 29.2415 43.4876 28.998 42.3311 28.7988L42.3228 28.8071C42.1678 29.1004 41.9963 29.6012 41.8081 30.3096C41.6753 30.8076 41.6089 31.278 41.6089 31.7207C41.6089 31.8978 41.6227 32.0776 41.6504 32.2603C41.7223 32.7306 41.9271 33.2259 42.2646 33.7461C42.5967 34.2607 43.0754 34.6619 43.7007 34.9497C44.2485 35.2043 45.0288 35.4478 46.0415 35.6802C46.1632 34.5402 46.2297 33.2591 46.2407 31.8369C46.2352 31.6654 46.2269 31.4966 46.2158 31.3306ZM47.9673 24.4575C47.7293 26.1177 47.6104 27.9771 47.6104 30.0356C47.6104 30.2404 47.6131 30.5392 47.6187 30.9321C47.6519 33.284 47.7515 34.9663 47.9175 35.979L47.9673 36.2612C47.2977 36.3387 46.6198 36.5739 45.9336 36.9668L45.8755 37C45.9253 36.668 45.9723 36.3221 46.0166 35.9624L44.3564 37C44.0299 36.917 43.637 36.7565 43.1777 36.5186C42.6576 36.2474 42.2425 35.9458 41.9326 35.6138C41.4899 35.1379 41.1496 34.626 40.9116 34.0781C40.6737 33.5801 40.5547 32.999 40.5547 32.335C40.5547 32.3128 40.5547 32.3018 40.5547 32.3018C40.5824 31.6598 40.7179 31.0483 40.9614 30.4673C41.133 30.0578 41.4069 29.6289 41.7832 29.1807C41.8994 29.0423 42.0654 28.8929 42.2812 28.7324L44.041 27.6201C44.362 27.681 44.7576 27.8359 45.228 28.085C45.5324 28.2454 45.8506 28.4613 46.1826 28.7324C46.1383 27.681 46.0526 26.5964 45.9253 25.4785L45.8921 25.3208L45.8755 25.2212V25.1963C46.5396 25.1188 47.2174 24.8836 47.9092 24.4907L47.9673 24.4575ZM16.6318 56.0332C16.2998 55.9502 15.9069 55.7897 15.4531 55.5518C15.0049 55.3138 14.5898 55.0122 14.208 54.647C13.721 54.1766 13.3807 53.6647 13.187 53.1113C12.9491 52.5358 12.8301 51.9437 12.8301 51.335C12.891 50.5713 13.0265 49.9598 13.2368 49.5005C13.4471 49.019 13.721 48.5902 14.0586 48.2139C14.2025 48.0534 14.3685 47.904 14.5566 47.7656L16.3164 46.6118C16.5876 46.6838 16.9832 46.8525 17.5034 47.1182C17.8908 47.3174 18.3031 47.6162 18.7402 48.0146C18.873 48.1364 19.0529 48.355 19.2798 48.6704L17.9434 49.5752C17.6722 49.1436 17.3623 48.806 17.0137 48.5625C16.6152 48.2858 15.8128 48.0423 14.6064 47.832L14.5981 47.8403C14.4377 48.1392 14.2661 48.64 14.0835 49.3428C13.9507 49.8464 13.8843 50.3167 13.8843 50.7539C13.8843 50.931 13.8981 51.1108 13.9258 51.2935C13.9977 51.7749 14.2025 52.2702 14.54 52.7793C14.8887 53.305 15.3674 53.7062 15.9761 53.9829C16.5461 54.243 17.3623 54.4948 18.4248 54.7383L18.4331 54.73C18.5216 54.5916 18.5659 54.3509 18.5659 54.0078C18.5659 53.792 18.5299 53.5098 18.458 53.1611L19.6367 53.626C19.4873 53.9635 19.2438 54.2679 18.9062 54.5391C18.6517 54.7438 18.5244 54.849 18.5244 54.8545L16.6318 56.0332ZM21.7119 56C21.8337 55.1644 21.9222 54.2845 21.9775 53.3604C22.0384 52.4362 22.0688 51.4567 22.0688 50.4219C22.0633 48.9609 22.0329 47.7352 21.9775 46.7446C21.9277 45.7541 21.8558 44.9987 21.7617 44.4785L21.7119 44.1963C22.0439 44.1576 22.3787 44.0801 22.7163 43.9639C23.0539 43.8421 23.397 43.6844 23.7456 43.4907L23.8037 43.4575C23.7096 44.0773 23.6322 44.7414 23.5713 45.4497C23.5104 46.158 23.4689 46.9245 23.4468 47.749L25.2646 46.6201C25.4196 46.6589 25.5967 46.7197 25.7959 46.8027C26.0007 46.8857 26.2137 46.9909 26.4351 47.1182C26.6564 47.2399 26.8805 47.3838 27.1074 47.5498C27.3398 47.7158 27.5557 47.9012 27.7549 48.106C27.9596 48.3052 28.145 48.5265 28.311 48.77C28.4771 49.008 28.6099 49.2653 28.7095 49.542C28.9253 50.0732 29.0415 50.6543 29.0581 51.2852C29.0858 52.0931 29.1245 52.8014 29.1743 53.4102C29.2241 54.0133 29.2878 54.5225 29.3652 54.9375L29.4316 55.2363C29.1992 55.264 28.9751 55.3083 28.7593 55.3691C28.549 55.4245 28.3525 55.4881 28.1699 55.5601C27.9928 55.632 27.8324 55.7067 27.6885 55.7842C27.5446 55.8617 27.4284 55.9336 27.3398 56C27.5557 54.5501 27.6636 53.1473 27.6636 51.7915C27.6525 51.5535 27.6414 51.3405 27.6304 51.1523C27.6248 50.9642 27.611 50.7954 27.5889 50.646C27.5723 50.491 27.5446 50.3527 27.5059 50.231C27.4727 50.1037 27.4229 49.9847 27.3564 49.874C27.196 49.6361 27.0106 49.423 26.8003 49.2349C26.5955 49.0467 26.341 48.8779 26.0366 48.7285C25.7323 48.5736 25.3698 48.4325 24.9492 48.3052C24.5342 48.1724 24.0361 48.0451 23.4551 47.9233H23.4468C23.4412 48.1281 23.4357 48.3356 23.4302 48.5459C23.4302 48.7507 23.4302 48.9582 23.4302 49.1685V49.459C23.4357 50.7926 23.4606 51.9132 23.5049 52.8208C23.5492 53.7284 23.6266 54.4339 23.7373 54.9375L23.8037 55.2363C23.5658 55.264 23.3389 55.3083 23.123 55.3691C22.9128 55.4245 22.7163 55.4881 22.5337 55.5601C22.3566 55.632 22.1961 55.7067 22.0522 55.7842C21.9139 55.8617 21.8005 55.9336 21.7119 56ZM34.8936 56.0332C34.5671 55.9557 34.1742 55.7952 33.7148 55.5518C33.2555 55.3027 32.8405 55.0011 32.4697 54.647C31.9827 54.1766 31.6424 53.6647 31.4487 53.1113C31.2606 52.652 31.1416 52.071 31.0918 51.3682V51.335C31.0918 50.7428 31.2274 50.1313 31.4985 49.5005C31.7033 49.019 31.9772 48.5902 32.3203 48.2139C32.4642 48.0589 32.6302 47.9095 32.8184 47.7656L34.5615 46.6201C34.8548 46.7197 35.3556 46.9521 36.064 47.3174C36.5786 47.583 37.0767 47.9814 37.5581 48.5127C37.9123 49.0661 38.0894 49.578 38.0894 50.0483C38.0894 50.0594 38.0894 50.0732 38.0894 50.0898C38.0063 50.765 37.6965 51.3073 37.1597 51.7168C36.2466 52.4141 35.1094 52.7682 33.748 52.7793C35.4635 52.1927 36.479 51.5148 36.7944 50.7456C36.8608 50.5851 36.894 50.4274 36.894 50.2725C36.894 50.2669 36.894 50.2614 36.894 50.2559C36.894 50.2503 36.894 50.2448 36.894 50.2393C36.894 50.0068 36.7972 49.7799 36.6035 49.5586C36.2992 49.1989 35.862 48.8779 35.292 48.5957C34.318 48.1143 33.5267 47.8431 32.918 47.7822C32.7077 48.1253 32.5168 48.6455 32.3452 49.3428C32.2124 49.8851 32.146 50.3555 32.146 50.7539C32.146 50.9421 32.1598 51.1219 32.1875 51.2935C32.265 51.786 32.4697 52.2812 32.8018 52.7793C33.1449 53.2884 33.6235 53.6896 34.2378 53.9829C34.769 54.2375 35.5853 54.4893 36.6865 54.7383L36.6948 54.73C36.7834 54.5916 36.8276 54.3509 36.8276 54.0078C36.8276 53.792 36.7917 53.5098 36.7197 53.1611L37.8984 53.626C37.749 53.9635 37.5055 54.2679 37.168 54.5391C36.9134 54.7438 36.7861 54.849 36.7861 54.8545L34.8936 56.0332ZM43.2026 56.0498C42.7655 55.8672 42.3615 55.7012 41.9907 55.5518C41.7638 55.4632 41.5369 55.3553 41.3101 55.228C41.0887 55.0952 40.8784 54.9541 40.6792 54.8047C40.48 54.6553 40.3001 54.5003 40.1396 54.3398C39.9792 54.1794 39.8519 54.0189 39.7578 53.8584L41.2437 52.9287C41.2547 53.0449 41.3267 53.1777 41.4595 53.3271C41.5923 53.471 41.8053 53.6232 42.0986 53.7837C42.3919 53.9442 42.771 54.1074 43.2358 54.2734C43.7062 54.4339 44.2845 54.5861 44.9707 54.73C45.2529 54.2485 45.394 53.7948 45.394 53.3687C45.394 52.7931 45.062 52.4141 44.3979 52.2314L44.1904 52.1733C44.0632 52.1512 43.9137 52.1291 43.7422 52.1069C43.5762 52.0848 43.3908 52.0599 43.186 52.0322C42.6548 51.9658 42.1816 51.8745 41.7666 51.7583C41.3516 51.6421 41.0002 51.4954 40.7124 51.3184C40.4246 51.1357 40.2005 50.9227 40.04 50.6792C39.8796 50.4302 39.791 50.1424 39.7744 49.8159C39.7855 49.6444 39.8104 49.4867 39.8491 49.3428C39.8934 49.1989 39.9626 49.0412 40.0566 48.8696C40.1562 48.6981 40.2891 48.521 40.4551 48.3384C40.6211 48.1558 40.8341 47.9648 41.0942 47.7656L42.854 46.6118C43.2635 46.7778 43.6177 46.9272 43.9165 47.0601C44.2153 47.1929 44.4782 47.3285 44.7051 47.4668C44.932 47.5996 45.134 47.7435 45.311 47.8984C45.4881 48.0479 45.6624 48.2222 45.834 48.4214L44.3813 49.3013C44.1877 49.0688 43.911 48.8226 43.5513 48.5625C43.175 48.2969 42.3726 48.0534 41.144 47.832L41.1357 47.8403C41.0085 47.9787 40.9033 48.153 40.8203 48.3633C40.7373 48.568 40.6958 48.7949 40.6958 49.0439C40.6958 49.2819 40.776 49.4784 40.9365 49.6333C41.097 49.7882 41.3045 49.9155 41.5591 50.0151C41.8136 50.1147 42.0959 50.1922 42.4058 50.2476C42.7212 50.3029 43.0283 50.3499 43.3271 50.3887C44.9984 50.5658 45.9889 51.0361 46.2988 51.7998C46.4095 52.0599 46.4648 52.3338 46.4648 52.6216C46.4648 52.7489 46.451 52.8789 46.4233 53.0117C46.3957 53.139 46.3431 53.2801 46.2656 53.4351C46.1882 53.59 46.0775 53.7588 45.9336 53.9414C45.7952 54.124 45.6126 54.3288 45.3857 54.5557C45.3304 54.611 45.2059 54.7051 45.0122 54.8379L43.2026 56.0498ZM51.5698 56.0498C51.1326 55.8672 50.7287 55.7012 50.3579 55.5518C50.131 55.4632 49.9041 55.3553 49.6772 55.228C49.4559 55.0952 49.2456 54.9541 49.0464 54.8047C48.8472 54.6553 48.6673 54.5003 48.5068 54.3398C48.3464 54.1794 48.2191 54.0189 48.125 53.8584L49.6108 52.9287C49.6219 53.0449 49.6938 53.1777 49.8267 53.3271C49.9595 53.471 50.1725 53.6232 50.4658 53.7837C50.7591 53.9442 51.1382 54.1074 51.603 54.2734C52.0734 54.4339 52.6517 54.5861 53.3379 54.73C53.6201 54.2485 53.7612 53.7948 53.7612 53.3687C53.7612 52.7931 53.4292 52.4141 52.7651 52.2314L52.5576 52.1733C52.4303 52.1512 52.2809 52.1291 52.1094 52.1069C51.9434 52.0848 51.758 52.0599 51.5532 52.0322C51.022 51.9658 50.5488 51.8745 50.1338 51.7583C49.7188 51.6421 49.3674 51.4954 49.0796 51.3184C48.7918 51.1357 48.5677 50.9227 48.4072 50.6792C48.2467 50.4302 48.1582 50.1424 48.1416 49.8159C48.1527 49.6444 48.1776 49.4867 48.2163 49.3428C48.2606 49.1989 48.3298 49.0412 48.4238 48.8696C48.5234 48.6981 48.6562 48.521 48.8223 48.3384C48.9883 48.1558 49.2013 47.9648 49.4614 47.7656L51.2212 46.6118C51.6307 46.7778 51.9849 46.9272 52.2837 47.0601C52.5825 47.1929 52.8454 47.3285 53.0723 47.4668C53.2992 47.5996 53.5011 47.7435 53.6782 47.8984C53.8553 48.0479 54.0296 48.2222 54.2012 48.4214L52.7485 49.3013C52.5549 49.0688 52.2782 48.8226 51.9185 48.5625C51.5422 48.2969 50.7397 48.0534 49.5112 47.832L49.5029 47.8403C49.3757 47.9787 49.2705 48.153 49.1875 48.3633C49.1045 48.568 49.063 48.7949 49.063 49.0439C49.063 49.2819 49.1432 49.4784 49.3037 49.6333C49.4642 49.7882 49.6717 49.9155 49.9263 50.0151C50.1808 50.1147 50.4631 50.1922 50.7729 50.2476C51.0884 50.3029 51.3955 50.3499 51.6943 50.3887C53.3656 50.5658 54.3561 51.0361 54.666 51.7998C54.7767 52.0599 54.832 52.3338 54.832 52.6216C54.832 52.7489 54.8182 52.8789 54.7905 53.0117C54.7629 53.139 54.7103 53.2801 54.6328 53.4351C54.5553 53.59 54.4447 53.7588 54.3008 53.9414C54.1624 54.124 53.9798 54.3288 53.7529 54.5557C53.6976 54.611 53.5731 54.7051 53.3794 54.8379L51.5698 56.0498Z" fill="white"/>
<defs>
<linearGradient id="paint0_linear_292_36" x1="40" y1="0" x2="40" y2="80" gradientUnits="userSpaceOnUse">
<stop stop-color="#B9803B"/>
<stop offset="1" stop-color="#53391A"/>
</linearGradient>
</defs>
</svg>
