<svg width="80" height="80" viewBox="0 0 80 80" fill="none" xmlns="http://www.w3.org/2000/svg">
<rect width="80" height="80" rx="10" fill="url(#paint0_linear_292_36)"/>
<path d="M11.488 43.268C11.056 42.7 10.84 41.784 10.84 40.52C10.84 39.256 11.056 38.34 11.488 37.772C11.92 37.204 12.636 36.92 13.636 36.92C14.636 36.92 15.356 37.196 15.796 37.748L15.532 37.988C15.18 37.516 14.548 37.28 13.636 37.28C13.236 37.28 12.9 37.324 12.628 37.412C12.356 37.492 12.104 37.648 11.872 37.88C11.648 38.104 11.48 38.436 11.368 38.876C11.256 39.308 11.2 39.856 11.2 40.52C11.2 41.184 11.256 41.736 11.368 42.176C11.48 42.608 11.648 42.94 11.872 43.172C12.104 43.396 12.356 43.552 12.628 43.64C12.9 43.72 13.236 43.76 13.636 43.76C14.548 43.76 15.18 43.524 15.532 43.052L15.796 43.292C15.356 43.844 14.636 44.12 13.636 44.12C12.636 44.12 11.92 43.836 11.488 43.268ZM21.0893 37.412C20.8173 37.324 20.4813 37.28 20.0813 37.28C19.6813 37.28 19.3453 37.324 19.0733 37.412C18.8013 37.492 18.5493 37.648 18.3173 37.88C18.0933 38.104 17.9253 38.436 17.8133 38.876C17.7013 39.308 17.6453 39.856 17.6453 40.52C17.6453 41.184 17.7013 41.736 17.8133 42.176C17.9253 42.608 18.0933 42.94 18.3173 43.172C18.5493 43.396 18.8013 43.552 19.0733 43.64C19.3453 43.72 19.6813 43.76 20.0813 43.76C20.4813 43.76 20.8173 43.72 21.0893 43.64C21.3613 43.552 21.6093 43.396 21.8333 43.172C22.0653 42.94 22.2373 42.608 22.3493 42.176C22.4613 41.736 22.5173 41.184 22.5173 40.52C22.5173 39.856 22.4613 39.308 22.3493 38.876C22.2373 38.436 22.0653 38.104 21.8333 37.88C21.6093 37.648 21.3613 37.492 21.0893 37.412ZM22.2293 43.268C21.7973 43.836 21.0813 44.12 20.0813 44.12C19.0813 44.12 18.3653 43.836 17.9333 43.268C17.5013 42.7 17.2853 41.784 17.2853 40.52C17.2853 39.256 17.5013 38.34 17.9333 37.772C18.3653 37.204 19.0813 36.92 20.0813 36.92C21.0813 36.92 21.7973 37.204 22.2293 37.772C22.6613 38.34 22.8773 39.256 22.8773 40.52C22.8773 41.784 22.6613 42.7 22.2293 43.268ZM25.7747 44H24.8627V37.04H25.7747C26.9587 37.04 27.9027 37.352 28.6067 37.976C29.3107 38.6 29.6627 39.448 29.6627 40.52C29.6627 41.592 29.3107 42.44 28.6067 43.064C27.9027 43.688 26.9587 44 25.7747 44ZM25.7747 43.64C26.8547 43.64 27.7107 43.364 28.3427 42.812C28.9827 42.26 29.3027 41.496 29.3027 40.52C29.3027 39.544 28.9827 38.78 28.3427 38.228C27.7107 37.676 26.8547 37.4 25.7747 37.4H25.2227V43.64H25.7747ZM36.1515 43.292C35.7115 43.844 34.9915 44.12 33.9915 44.12C32.9915 44.12 32.2755 43.836 31.8435 43.268C31.4115 42.7 31.1955 41.784 31.1955 40.52C31.1955 39.256 31.4115 38.34 31.8435 37.772C32.2755 37.204 32.9915 36.92 33.9915 36.92C35.1515 36.92 35.9395 37.3 36.3555 38.06L33.4155 40.52H32.8515L35.8875 37.988C35.5355 37.516 34.9035 37.28 33.9915 37.28C33.5915 37.28 33.2555 37.324 32.9835 37.412C32.7115 37.492 32.4595 37.648 32.2275 37.88C32.0035 38.104 31.8355 38.436 31.7235 38.876C31.6115 39.308 31.5555 39.856 31.5555 40.52C31.5555 41.184 31.6115 41.736 31.7235 42.176C31.8355 42.608 32.0035 42.94 32.2275 43.172C32.4595 43.396 32.7115 43.552 32.9835 43.64C33.2555 43.72 33.5915 43.76 33.9915 43.76C34.9035 43.76 35.5355 43.524 35.8875 43.052L36.1515 43.292ZM37.9497 44V40.52C37.9497 39.256 38.1657 38.34 38.5977 37.772C39.0377 37.204 39.7537 36.92 40.7457 36.92C41.9057 36.92 42.6937 37.3 43.1097 38.06L40.6017 40.16H43.1577V40.52H39.6057L42.6417 37.988C42.2897 37.516 41.6577 37.28 40.7457 37.28C40.3457 37.28 40.0097 37.324 39.7377 37.412C39.4657 37.492 39.2137 37.648 38.9817 37.88C38.7577 38.104 38.5897 38.436 38.4777 38.876C38.3657 39.308 38.3097 39.856 38.3097 40.52V44H37.9497ZM48.4643 37.412C48.1923 37.324 47.8563 37.28 47.4563 37.28C47.0563 37.28 46.7203 37.324 46.4483 37.412C46.1763 37.492 45.9243 37.648 45.6923 37.88C45.4683 38.104 45.3003 38.436 45.1883 38.876C45.0763 39.308 45.0203 39.856 45.0203 40.52C45.0203 41.184 45.0763 41.736 45.1883 42.176C45.3003 42.608 45.4683 42.94 45.6923 43.172C45.9243 43.396 46.1763 43.552 46.4483 43.64C46.7203 43.72 47.0563 43.76 47.4563 43.76C47.8563 43.76 48.1923 43.72 48.4643 43.64C48.7363 43.552 48.9843 43.396 49.2083 43.172C49.4403 42.94 49.6123 42.608 49.7243 42.176C49.8363 41.736 49.8923 41.184 49.8923 40.52C49.8923 39.856 49.8363 39.308 49.7243 38.876C49.6123 38.436 49.4403 38.104 49.2083 37.88C48.9843 37.648 48.7363 37.492 48.4643 37.412ZM49.6043 43.268C49.1723 43.836 48.4563 44.12 47.4563 44.12C46.4563 44.12 45.7403 43.836 45.3083 43.268C44.8763 42.7 44.6603 41.784 44.6603 40.52C44.6603 39.256 44.8763 38.34 45.3083 37.772C45.7403 37.204 46.4563 36.92 47.4563 36.92C48.4563 36.92 49.1723 37.204 49.6043 37.772C50.0363 38.34 50.2523 39.256 50.2523 40.52C50.2523 41.784 50.0363 42.7 49.6043 43.268ZM56.2457 43.64V44H52.2377V37.04H52.5977V43.64H56.2457ZM57.6283 37.04H57.9883V44H57.6283V37.04ZM63.769 37.412C63.497 37.324 63.161 37.28 62.761 37.28C62.361 37.28 62.025 37.324 61.753 37.412C61.481 37.492 61.229 37.648 60.997 37.88C60.773 38.104 60.605 38.436 60.493 38.876C60.381 39.308 60.325 39.856 60.325 40.52C60.325 41.184 60.381 41.736 60.493 42.176C60.605 42.608 60.773 42.94 60.997 43.172C61.229 43.396 61.481 43.552 61.753 43.64C62.025 43.72 62.361 43.76 62.761 43.76C63.161 43.76 63.497 43.72 63.769 43.64C64.041 43.552 64.289 43.396 64.513 43.172C64.745 42.94 64.917 42.608 65.029 42.176C65.141 41.736 65.197 41.184 65.197 40.52C65.197 39.856 65.141 39.308 65.029 38.876C64.917 38.436 64.745 38.104 64.513 37.88C64.289 37.648 64.041 37.492 63.769 37.412ZM64.909 43.268C64.477 43.836 63.761 44.12 62.761 44.12C61.761 44.12 61.045 43.836 60.613 43.268C60.181 42.7 59.965 41.784 59.965 40.52C59.965 39.256 60.181 38.34 60.613 37.772C61.045 37.204 61.761 36.92 62.761 36.92C63.761 36.92 64.477 37.204 64.909 37.772C65.341 38.34 65.557 39.256 65.557 40.52C65.557 41.784 65.341 42.7 64.909 43.268Z" fill="white"/>
<defs>
<linearGradient id="paint0_linear_292_36" x1="40" y1="80" x2="40" y2="0" gradientUnits="userSpaceOnUse">
<stop stop-color="#22618C"/>
<stop offset="1" stop-color="#3BA8F2"/>
</linearGradient>
</defs>
</svg>
