<svg width="80" height="80" viewBox="0 0 80 80" fill="none" xmlns="http://www.w3.org/2000/svg">
<rect width="80" height="80" rx="10" fill="#CCCBD0"/>
<path d="M12.5977 25.6738C13.6406 25.6738 14.418 26.0176 14.9297 26.7051C15.4414 27.3926 15.6973 28.4355 15.6973 29.834C15.6973 31.166 15.4277 32.1934 14.8887 32.916C14.3496 33.6387 13.5859 34 12.5977 34H9.82617V25.6738H12.5977ZM12.5156 26.6699H10.9453V33.0039H12.5156C13.2031 33.0039 13.7129 32.7441 14.0449 32.2246C14.377 31.7051 14.543 30.9082 14.543 29.834C14.543 28.7129 14.3848 27.9062 14.0684 27.4141C13.752 26.918 13.2344 26.6699 12.5156 26.6699ZM18.2812 30.1973H21.416C21.416 29.5801 21.2812 29.1016 21.0117 28.7617C20.7422 28.4219 20.3652 28.252 19.8809 28.252C19.4004 28.252 19.0215 28.4219 18.7441 28.7617C18.4668 29.0977 18.3125 29.5762 18.2812 30.1973ZM18.2812 31.082V31.1172C18.2812 31.7852 18.4297 32.3125 18.7266 32.6992C19.0234 33.0859 19.4277 33.2793 19.9395 33.2793C20.291 33.2793 20.5898 33.1816 20.8359 32.9863C21.0859 32.7871 21.2578 32.5098 21.3516 32.1543H22.4004C22.2793 32.7871 21.9844 33.291 21.5156 33.666C21.0469 34.041 20.4766 34.2285 19.8047 34.2285C19 34.2285 18.3613 33.9199 17.8887 33.3027C17.416 32.6855 17.1797 31.8418 17.1797 30.7715C17.1797 29.7168 17.4199 28.8789 17.9004 28.2578C18.3848 27.6367 19.0312 27.3262 19.8398 27.3262C20.6836 27.3262 21.3398 27.6133 21.8086 28.1875C22.2812 28.7617 22.5176 29.5625 22.5176 30.5898C22.5176 30.7266 22.5156 30.8301 22.5117 30.9004C22.5117 30.9668 22.5098 31.0273 22.5059 31.082H18.2812ZM26.0508 28.6738H24.123V27.7715H26.0508V27.1855C26.0508 26.5645 26.2363 26.1094 26.6074 25.8203C26.9824 25.5312 27.5703 25.3867 28.3711 25.3867C28.5078 25.3867 28.666 25.3906 28.8457 25.3984C29.0293 25.4062 29.25 25.4219 29.5078 25.4453V26.3535C29.4922 26.3535 29.4668 26.3516 29.4316 26.3477C29.0527 26.3203 28.7793 26.3066 28.6113 26.3066C28.0918 26.3066 27.7109 26.3945 27.4688 26.5703C27.2305 26.7422 27.1113 27.0117 27.1113 27.3789V27.7715H29.5078V28.6738H27.1113V34H26.0508V28.6738ZM32.7422 30.1973H35.877C35.877 29.5801 35.7422 29.1016 35.4727 28.7617C35.2031 28.4219 34.8262 28.252 34.3418 28.252C33.8613 28.252 33.4824 28.4219 33.2051 28.7617C32.9277 29.0977 32.7734 29.5762 32.7422 30.1973ZM32.7422 31.082V31.1172C32.7422 31.7852 32.8906 32.3125 33.1875 32.6992C33.4844 33.0859 33.8887 33.2793 34.4004 33.2793C34.752 33.2793 35.0508 33.1816 35.2969 32.9863C35.5469 32.7871 35.7188 32.5098 35.8125 32.1543H36.8613C36.7402 32.7871 36.4453 33.291 35.9766 33.666C35.5078 34.041 34.9375 34.2285 34.2656 34.2285C33.4609 34.2285 32.8223 33.9199 32.3496 33.3027C31.877 32.6855 31.6406 31.8418 31.6406 30.7715C31.6406 29.7168 31.8809 28.8789 32.3613 28.2578C32.8457 27.6367 33.4922 27.3262 34.3008 27.3262C35.1445 27.3262 35.8008 27.6133 36.2695 28.1875C36.7422 28.7617 36.9785 29.5625 36.9785 30.5898C36.9785 30.7266 36.9766 30.8301 36.9727 30.9004C36.9727 30.9668 36.9707 31.0273 36.9668 31.082H32.7422ZM43.1543 29.6934C43.1309 29.2324 42.9844 28.877 42.7148 28.627C42.4492 28.377 42.084 28.252 41.6191 28.252C41.0801 28.252 40.6621 28.4707 40.3652 28.9082C40.0723 29.3418 39.9258 29.959 39.9258 30.7598C39.9258 31.5801 40.0703 32.2051 40.3594 32.6348C40.6484 33.0645 41.0684 33.2793 41.6191 33.2793C42.0527 33.2793 42.4121 33.1387 42.6973 32.8574C42.9824 32.5723 43.1504 32.1855 43.2012 31.6973H44.209C44.1621 32.4707 43.9004 33.0859 43.4238 33.543C42.9512 34 42.3379 34.2285 41.584 34.2285C40.7207 34.2285 40.0488 33.9258 39.5684 33.3203C39.0879 32.7148 38.8477 31.873 38.8477 30.7949C38.8477 29.7168 39.0938 28.8691 39.5859 28.252C40.0781 27.6348 40.7559 27.3262 41.6191 27.3262C42.3809 27.3262 42.9941 27.541 43.459 27.9707C43.9277 28.3965 44.1738 28.9707 44.1973 29.6934H43.1543ZM47.6953 28.6738H45.873V27.7715H47.6953V25.8906H48.75V27.7715H51.1641V28.6738H48.75V31.7207C48.75 32.4004 48.8574 32.8379 49.0723 33.0332C49.291 33.2285 49.6836 33.3262 50.25 33.3262C50.3633 33.3262 50.4941 33.3203 50.6426 33.3086C50.7949 33.2969 50.9688 33.2793 51.1641 33.2559V34.1641C50.8594 34.1875 50.6074 34.2031 50.4082 34.2109C50.2129 34.2227 50.0488 34.2285 49.916 34.2285C49.0879 34.2285 48.5098 34.0703 48.1816 33.7539C47.8574 33.4336 47.6953 32.8164 47.6953 31.9023V28.6738ZM12.5977 44.6738C13.6406 44.6738 14.418 45.0176 14.9297 45.7051C15.4414 46.3926 15.6973 47.4355 15.6973 48.834C15.6973 50.166 15.4277 51.1934 14.8887 51.916C14.3496 52.6387 13.5859 53 12.5977 53H9.82617V44.6738H12.5977ZM12.5156 45.6699H10.9453V52.0039H12.5156C13.2031 52.0039 13.7129 51.7441 14.0449 51.2246C14.377 50.7051 14.543 49.9082 14.543 48.834C14.543 47.7129 14.3848 46.9062 14.0684 46.4141C13.752 45.918 13.2344 45.6699 12.5156 45.6699ZM18.2812 49.1973H21.416C21.416 48.5801 21.2812 48.1016 21.0117 47.7617C20.7422 47.4219 20.3652 47.252 19.8809 47.252C19.4004 47.252 19.0215 47.4219 18.7441 47.7617C18.4668 48.0977 18.3125 48.5762 18.2812 49.1973ZM18.2812 50.082V50.1172C18.2812 50.7852 18.4297 51.3125 18.7266 51.6992C19.0234 52.0859 19.4277 52.2793 19.9395 52.2793C20.291 52.2793 20.5898 52.1816 20.8359 51.9863C21.0859 51.7871 21.2578 51.5098 21.3516 51.1543H22.4004C22.2793 51.7871 21.9844 52.291 21.5156 52.666C21.0469 53.041 20.4766 53.2285 19.8047 53.2285C19 53.2285 18.3613 52.9199 17.8887 52.3027C17.416 51.6855 17.1797 50.8418 17.1797 49.7715C17.1797 48.7168 17.4199 47.8789 17.9004 47.2578C18.3848 46.6367 19.0312 46.3262 19.8398 46.3262C20.6836 46.3262 21.3398 46.6133 21.8086 47.1875C22.2812 47.7617 22.5176 48.5625 22.5176 49.5898C22.5176 49.7266 22.5156 49.8301 22.5117 49.9004C22.5117 49.9668 22.5098 50.0273 22.5059 50.082H18.2812ZM26.0039 47.6738H24.1816V46.7715H26.0039V44.8906H27.0586V46.7715H29.4727V47.6738H27.0586V50.7207C27.0586 51.4004 27.166 51.8379 27.3809 52.0332C27.5996 52.2285 27.9922 52.3262 28.5586 52.3262C28.6719 52.3262 28.8027 52.3203 28.9512 52.3086C29.1035 52.2969 29.2773 52.2793 29.4727 52.2559V53.1641C29.168 53.1875 28.916 53.2031 28.7168 53.2109C28.5215 53.2227 28.3574 53.2285 28.2246 53.2285C27.3965 53.2285 26.8184 53.0703 26.4902 52.7539C26.166 52.4336 26.0039 51.8164 26.0039 50.9023V47.6738ZM32.7422 49.1973H35.877C35.877 48.5801 35.7422 48.1016 35.4727 47.7617C35.2031 47.4219 34.8262 47.252 34.3418 47.252C33.8613 47.252 33.4824 47.4219 33.2051 47.7617C32.9277 48.0977 32.7734 48.5762 32.7422 49.1973ZM32.7422 50.082V50.1172C32.7422 50.7852 32.8906 51.3125 33.1875 51.6992C33.4844 52.0859 33.8887 52.2793 34.4004 52.2793C34.752 52.2793 35.0508 52.1816 35.2969 51.9863C35.5469 51.7871 35.7188 51.5098 35.8125 51.1543H36.8613C36.7402 51.7871 36.4453 52.291 35.9766 52.666C35.5078 53.041 34.9375 53.2285 34.2656 53.2285C33.4609 53.2285 32.8223 52.9199 32.3496 52.3027C31.877 51.6855 31.6406 50.8418 31.6406 49.7715C31.6406 48.7168 31.8809 47.8789 32.3613 47.2578C32.8457 46.6367 33.4922 46.3262 34.3008 46.3262C35.1445 46.3262 35.8008 46.6133 36.2695 47.1875C36.7422 47.7617 36.9785 48.5625 36.9785 49.5898C36.9785 49.7266 36.9766 49.8301 36.9727 49.9004C36.9727 49.9668 36.9707 50.0273 36.9668 50.082H32.7422ZM43.1543 48.6934C43.1309 48.2324 42.9844 47.877 42.7148 47.627C42.4492 47.377 42.084 47.252 41.6191 47.252C41.0801 47.252 40.6621 47.4707 40.3652 47.9082C40.0723 48.3418 39.9258 48.959 39.9258 49.7598C39.9258 50.5801 40.0703 51.2051 40.3594 51.6348C40.6484 52.0645 41.0684 52.2793 41.6191 52.2793C42.0527 52.2793 42.4121 52.1387 42.6973 51.8574C42.9824 51.5723 43.1504 51.1855 43.2012 50.6973H44.209C44.1621 51.4707 43.9004 52.0859 43.4238 52.543C42.9512 53 42.3379 53.2285 41.584 53.2285C40.7207 53.2285 40.0488 52.9258 39.5684 52.3203C39.0879 51.7148 38.8477 50.873 38.8477 49.7949C38.8477 48.7168 39.0938 47.8691 39.5859 47.252C40.0781 46.6348 40.7559 46.3262 41.6191 46.3262C42.3809 46.3262 42.9941 46.541 43.459 46.9707C43.9277 47.3965 44.1738 47.9707 44.1973 48.6934H43.1543ZM47.6953 47.6738H45.873V46.7715H47.6953V44.8906H48.75V46.7715H51.1641V47.6738H48.75V50.7207C48.75 51.4004 48.8574 51.8379 49.0723 52.0332C49.291 52.2285 49.6836 52.3262 50.25 52.3262C50.3633 52.3262 50.4941 52.3203 50.6426 52.3086C50.7949 52.2969 50.9688 52.2793 51.1641 52.2559V53.1641C50.8594 53.1875 50.6074 53.2031 50.4082 53.2109C50.2129 53.2227 50.0488 53.2285 49.916 53.2285C49.0879 53.2285 48.5098 53.0703 48.1816 52.7539C47.8574 52.4336 47.6953 51.8164 47.6953 50.9023V47.6738ZM56.7773 44.3867V45.582H55.6582V44.3867H56.7773ZM56.7363 52.1094H58.9219V53H53.5254V52.1094H55.6816V47.6738H54.0293V46.7715H56.7363V52.1094ZM61.5117 49.7715C61.5117 50.5801 61.6602 51.2031 61.957 51.6406C62.2539 52.0742 62.6758 52.291 63.2227 52.291C63.7734 52.291 64.1973 52.0742 64.4941 51.6406C64.791 51.2031 64.9395 50.5801 64.9395 49.7715C64.9395 48.9629 64.791 48.3438 64.4941 47.9141C64.2012 47.4805 63.7773 47.2637 63.2227 47.2637C62.6719 47.2637 62.248 47.4805 61.9512 47.9141C61.6582 48.3438 61.5117 48.9629 61.5117 49.7715ZM60.4277 49.7832C60.4277 48.6973 60.6738 47.8496 61.166 47.2402C61.6621 46.6309 62.3477 46.3262 63.2227 46.3262C64.1055 46.3262 64.793 46.6309 65.2852 47.2402C65.7773 47.8457 66.0234 48.6934 66.0234 49.7832C66.0234 50.8691 65.7773 51.7148 65.2852 52.3203C64.793 52.9258 64.1055 53.2285 63.2227 53.2285C62.3477 53.2285 61.6621 52.9258 61.166 52.3203C60.6738 51.7109 60.4277 50.8652 60.4277 49.7832ZM67.9746 53V46.5547H68.9824V47.5391C69.1934 47.1367 69.457 46.834 69.7734 46.6309C70.0938 46.4277 70.4688 46.3262 70.8984 46.3262C71.3281 46.3262 71.6953 46.4004 72 46.5488C72.3086 46.6973 72.5449 46.916 72.709 47.2051C72.8066 47.3652 72.875 47.5527 72.9141 47.7676C72.957 47.9785 72.9785 48.3105 72.9785 48.7637V49.0859V53H71.918V48.9805C71.918 48.3477 71.8281 47.9062 71.6484 47.6562C71.4688 47.4023 71.168 47.2754 70.7461 47.2754C70.2031 47.2754 69.7812 47.4512 69.4805 47.8027C69.1797 48.1543 69.0293 48.6465 69.0293 49.2793V53H67.9746Z" fill="black"/>
</svg>
