<svg width="128" height="128" viewBox="0 0 128 128" fill="none" xmlns="http://www.w3.org/2000/svg">
<g clip-path="url(#clip0_364_12)">
<path d="M85 5.00003C89.9957 7.47676 93.5699 11.2808 97.4531 15.1875C98.154 15.8864 98.8548 16.5854 99.5768 17.3054C101.052 18.779 102.524 20.255 103.994 21.7334C106.249 23.9991 108.515 26.2539 110.781 28.5078C112.214 29.9421 113.646 31.377 115.078 32.8125C115.757 33.4876 116.436 34.1627 117.136 34.8582C117.76 35.4889 118.385 36.1197 119.028 36.7696C119.855 37.5987 119.855 37.5987 120.699 38.4446C123.274 41.5228 123.202 44.9055 123.426 48.7696C122.279 54.7748 116.907 59.3808 112.734 63.5244C112.116 64.1463 111.498 64.7682 110.86 65.409C108.829 67.4496 106.79 69.4828 104.75 71.5156C103.33 72.9369 101.911 74.3584 100.491 75.7802C97.5221 78.7523 94.5495 81.7207 91.5742 84.6865C87.7609 88.4885 83.9566 92.2993 80.155 96.1129C77.2281 99.047 74.2965 101.976 71.3634 104.904C69.9585 106.308 68.5551 107.713 67.1532 109.119C65.1955 111.082 63.2315 113.039 61.2656 114.993C60.399 115.866 60.399 115.866 59.5148 116.756C54.6545 121.566 51.9692 123.186 45.0977 123.363C38.9682 122.302 34.7322 117.023 30.5469 112.813C29.846 112.114 29.1452 111.415 28.4232 110.695C26.9483 109.221 25.4759 107.745 24.0059 106.267C21.7509 104.001 19.4854 101.746 17.2188 99.4922C15.7858 98.058 14.3535 96.6231 12.9219 95.1875C11.9032 94.1749 11.9032 94.1749 10.864 93.1419C9.92728 92.1957 9.92728 92.1957 8.97168 91.2305C8.14492 90.4013 8.14492 90.4013 7.30145 89.5554C4.72582 86.4772 4.79789 83.0945 4.57422 79.2305C5.72057 73.2253 11.0928 68.6192 15.2656 64.4756C15.884 63.8537 16.5024 63.2318 17.1395 62.5911C19.1714 60.5505 21.2104 58.5172 23.25 56.4844C24.6699 55.0632 26.0895 53.6416 27.5088 52.2198C30.4779 49.2478 33.4505 46.2794 36.4258 43.3135C40.2391 39.5116 44.0434 35.7007 47.845 31.8871C50.7719 28.953 53.7035 26.0237 56.6366 23.0958C58.0415 21.6922 59.4449 20.2872 60.8468 18.8806C62.8045 16.9178 64.7685 14.9615 66.7344 13.0069C67.3122 12.425 67.8899 11.8432 68.4852 11.2437C73.592 6.19047 77.6176 3.72151 85 5.00003ZM79 15C71.686 21.1242 64.9723 27.8462 58.2227 34.5742C57.6245 35.1696 57.0262 35.765 56.4099 36.3784C53.2549 39.5186 50.1027 42.6615 46.9529 45.8069C43.7024 49.0518 40.4428 52.2874 37.181 55.5209C34.6667 58.0165 32.1591 60.5189 29.6534 63.0231C28.4538 64.2197 27.2516 65.4138 26.047 66.6053C24.3693 68.2659 22.7013 69.9358 21.0354 71.6082C20.5373 72.0971 20.0391 72.586 19.5259 73.0897C17.0874 75.5582 15.2441 77.4389 15 81C16.0024 82.8299 16.0024 82.8299 17.707 84.5039C18.3562 85.1989 19.0054 85.8939 19.6743 86.6099C20.8255 87.793 20.8255 87.793 22 89C22.8822 89.919 23.7644 90.8379 24.6733 91.7847C27.1382 94.3374 29.6306 96.8613 32.135 99.3753C33.7021 100.952 35.2581 102.539 36.8145 104.127C37.8171 105.136 38.8203 106.145 39.8242 107.152C40.7223 108.06 41.6204 108.967 42.5457 109.902C44.9586 111.965 45.922 112.697 49 113C50.8016 112.029 50.8016 112.029 52.4514 110.348C53.5002 109.369 53.5002 109.369 54.5701 108.37C55.7729 107.197 55.7729 107.197 57 106C57.9331 105.097 58.8662 104.194 59.8276 103.263C63.1683 100.008 66.474 96.7185 69.7773 93.4258C70.3755 92.8304 70.9738 92.235 71.5901 91.6216C74.7451 88.4815 77.8973 85.3386 81.0471 82.1931C84.2976 78.9482 87.5572 75.7127 90.819 72.4792C93.3333 69.9835 95.8409 67.4812 98.3466 64.977C99.5462 63.7804 100.748 62.5863 101.953 61.3948C103.631 59.7341 105.299 58.0643 106.965 56.3919C107.463 55.903 107.961 55.414 108.474 54.9103C111.87 51.5081 111.87 51.5081 113 47C111.417 44.5834 111.417 44.5834 109 43C106.782 43.1902 105.585 43.4152 104 45C101.43 45.5078 101.43 45.5078 98 45C95.0396 42.9508 92.6208 40.4579 90.125 37.875C89.4366 37.2099 88.7483 36.5447 88.0391 35.8594C83.1554 30.9176 83.1554 30.9176 82.4297 26.6328C83 24 83 24 85 22C85.0727 19.4454 85.0727 19.4454 84 17C81.5236 15.6254 81.5236 15.6254 79 15Z" fill="white"/>
<path d="M123.5 68.75C126 69 126 69 128 71C129.564 83.1812 125.934 94.986 119 105C109.922 116.426 98.6633 125.219 84 128C79.6537 128.246 75.3377 128.413 71 128C69 126 69 126 68.6809 123.611C69.0685 120.439 69.8793 119.478 72.1055 117.23C73.0868 116.24 73.0868 116.24 74.0879 115.229C74.7808 114.555 75.4736 113.881 76.1875 113.188C76.861 112.495 77.5346 111.802 78.2285 111.088C78.8892 110.434 79.5498 109.779 80.2305 109.105C81.1338 108.211 81.1338 108.211 82.0554 107.298C84.572 105.618 86.0293 105.583 89 106C91.8125 108.375 91.8125 108.375 94 111C94 111.66 94 112.32 94 113C105.673 105.511 113.495 96.6088 117 83C117.59 79.8159 118.098 76.6458 118.508 73.4336C119.191 70.0555 120.043 69.0957 123.5 68.75Z" fill="white"/>
<path d="M57 2.86996e-05C59 2.00003 59 2.00003 59.3191 4.38943C58.9315 7.56085 58.1207 8.52237 55.8945 10.7696C54.9132 11.7605 54.9132 11.7605 53.9121 12.7715C53.2192 13.445 52.5264 14.1186 51.8125 14.8125C51.139 15.5054 50.4654 16.1983 49.7715 16.9121C49.1108 17.5663 48.4502 18.2205 47.7695 18.8946C47.1673 19.4912 46.5651 20.0877 45.9446 20.7024C43.428 22.3817 41.9707 22.417 39 22C36.1875 19.625 36.1875 19.625 34 17C34 16.34 34 15.68 34 15C22.3272 22.4886 14.5047 31.3913 11 45C10.4101 48.1841 9.90154 51.3543 9.49219 54.5664C9 57 9 57 7 59C4.5 59.25 4.5 59.25 2 59C-0.685461 56.3146 -0.330006 54.8775 -0.375 51.125C-0.120816 35.7723 7.34205 23.5322 18 13C28.7256 3.27266 42.6284 -1.36678 57 2.86996e-05Z" fill="white"/>
</g>
<defs>
<clipPath id="clip0_364_12">
<rect width="128" height="128" fill="white"/>
</clipPath>
</defs>
</svg>
