<?xml version="1.0" encoding="UTF-8"?>
<svg version="1.1" xmlns="http://www.w3.org/2000/svg" width="128" height="128">
<path d="M0 0 C4.99570841 2.4767313 8.56986591 6.28081197 12.453125 10.1875 C13.15395203 10.88641357 13.85477905 11.58532715 14.57684326 12.30541992 C16.05173544 13.77895487 17.52412003 15.25500349 18.99414062 16.73339844 C21.24909335 18.99908904 23.51455067 21.25388054 25.78125 23.5078125 C27.21418367 24.94206721 28.64649711 26.3769419 30.078125 27.8125 C30.75723938 28.48756592 31.43635376 29.16263184 32.13604736 29.8581543 C32.76049744 30.48890869 33.38494751 31.11966309 34.02832031 31.76953125 C34.8550827 32.59868042 34.8550827 32.59868042 35.69854736 33.44458008 C38.27417544 36.52281982 38.20211368 39.90548113 38.42578125 43.76953125 C37.27942598 49.77475016 31.90720531 54.38082236 27.734375 58.52441406 C27.11598755 59.14630615 26.4976001 59.76819824 25.86047363 60.40893555 C23.82862839 62.44953603 21.78961147 64.48278918 19.75 66.515625 C18.33011113 67.93686196 16.9105192 69.35839562 15.49121094 70.7802124 C12.52212046 73.75224544 9.54945767 76.72064587 6.57421875 79.68652344 C2.76087943 83.48844801 -1.04338314 87.29930867 -4.84503174 91.11291885 C-7.77190407 94.04701542 -10.70351973 96.97633526 -13.63659668 99.90422821 C-15.0414919 101.30778958 -16.44490381 102.7128373 -17.84680176 104.1193924 C-19.80452856 106.08219583 -21.76854786 108.03847802 -23.734375 109.99316406 C-24.60104797 110.86590973 -24.60104797 110.86590973 -25.48522949 111.75628662 C-30.34552383 116.56565355 -33.03078658 118.18568633 -39.90234375 118.36328125 C-46.03178912 117.30175719 -50.26778239 112.02309412 -54.453125 107.8125 C-55.15395203 107.11358643 -55.85477905 106.41467285 -56.57684326 105.69458008 C-58.05173544 104.22104513 -59.52412003 102.74499651 -60.99414062 101.26660156 C-63.24909335 99.00091096 -65.51455067 96.74611946 -67.78125 94.4921875 C-69.21418367 93.05793279 -70.64649711 91.6230581 -72.078125 90.1875 C-73.09679657 89.17490112 -73.09679657 89.17490112 -74.13604736 88.1418457 C-75.07272247 87.19571411 -75.07272247 87.19571411 -76.02832031 86.23046875 C-76.8550827 85.40131958 -76.8550827 85.40131958 -77.69854736 84.55541992 C-80.27417544 81.47718018 -80.20211368 78.09451887 -80.42578125 74.23046875 C-79.27942598 68.22524984 -73.90720531 63.61917764 -69.734375 59.47558594 C-69.11598755 58.85369385 -68.4976001 58.23180176 -67.86047363 57.59106445 C-65.82862839 55.55046397 -63.78961147 53.51721082 -61.75 51.484375 C-60.33011113 50.06313804 -58.9105192 48.64160438 -57.49121094 47.2197876 C-54.52212046 44.24775456 -51.54945767 41.27935413 -48.57421875 38.31347656 C-44.76087943 34.51155199 -40.95661686 30.70069133 -37.15496826 26.88708115 C-34.22809593 23.95298458 -31.29648027 21.02366474 -28.36340332 18.09577179 C-26.9585081 16.69221042 -25.55509619 15.2871627 -24.15319824 13.8806076 C-22.19547144 11.91780417 -20.23145214 9.96152198 -18.265625 8.00683594 C-17.68784302 7.42500549 -17.11006104 6.84317505 -16.51477051 6.24371338 C-11.40798777 1.19044082 -7.3823771 -1.27851224 0 0 Z M-6 10 C-13.31396077 16.124152 -20.02768915 22.84622012 -26.77734375 29.57421875 C-27.37554995 30.16959757 -27.97375614 30.76497639 -28.5900898 31.37839699 C-31.74511973 34.51854161 -34.89734647 37.66146706 -38.04711914 40.80688477 C-41.29756972 44.05181259 -44.55722492 47.28733019 -47.81903744 50.52083111 C-50.33330397 53.01650495 -52.84086751 55.51883138 -55.34662056 58.02305031 C-56.54624039 59.21964422 -57.74836004 60.41373743 -58.95301628 61.60526085 C-60.63068607 63.26591333 -62.29867709 64.93572902 -63.96459961 66.6081543 C-64.46272659 67.0970665 -64.96085358 67.5859787 -65.47407532 68.08970642 C-67.91256244 70.55819919 -69.75589506 72.43890358 -70 76 C-68.9975793 77.82982736 -68.9975793 77.82982736 -67.29296875 79.50390625 C-66.64376465 80.19887207 -65.99456055 80.89383789 -65.32568359 81.60986328 C-64.17447021 82.79298096 -64.17447021 82.79298096 -63 84 C-62.11779785 84.91894043 -61.2355957 85.83788086 -60.32666016 86.78466797 C-57.86177231 89.33737879 -55.36937892 91.86132249 -52.86499023 94.37524414 C-51.29793291 95.95215872 -49.74185416 97.5394368 -48.18554688 99.12695312 C-47.18294859 100.13606977 -46.17971635 101.14455704 -45.17578125 102.15234375 C-44.27770752 103.05976318 -43.37963379 103.96718262 -42.4543457 104.90209961 C-40.0414465 106.96457279 -39.07804747 107.6967865 -36 108 C-34.19842261 107.02876092 -34.19842261 107.02876092 -32.54858398 105.34838867 C-31.49983597 104.36894791 -31.49983597 104.36894791 -30.42990112 103.36972046 C-29.22710007 102.19670883 -29.22710007 102.19670883 -28 101 C-27.06688995 100.09673981 -26.13377991 99.19347961 -25.1723938 98.2628479 C-21.83172959 95.00795809 -18.52597517 91.71850161 -15.22265625 88.42578125 C-14.62445005 87.83040243 -14.02624386 87.23502361 -13.4099102 86.62160301 C-10.25488027 83.48145839 -7.10265353 80.33853294 -3.95288086 77.19311523 C-0.70243028 73.94818741 2.55722492 70.71266981 5.81903744 67.47916889 C8.33330397 64.98349505 10.84086751 62.48116862 13.34662056 59.97694969 C14.54624039 58.78035578 15.74836004 57.58626257 16.95301628 56.39473915 C18.63068607 54.73408667 20.29867709 53.06427098 21.96459961 51.3918457 C22.46272659 50.9029335 22.96085358 50.4140213 23.47407532 49.91029358 C26.86991042 46.50806044 26.86991042 46.50806044 28 42 C26.41666667 39.58333333 26.41666667 39.58333333 24 38 C21.78155374 38.19015254 20.58477845 38.41522155 19 40 C16.4296875 40.5078125 16.4296875 40.5078125 13 40 C10.03960347 37.95072912 7.62084205 35.45790631 5.125 32.875 C4.43664062 32.20984375 3.74828125 31.5446875 3.0390625 30.859375 C-1.84458466 25.91758918 -1.84458466 25.91758918 -2.5703125 21.6328125 C-2 19 -2 19 0 17 C0.07272562 14.44539786 0.07272562 14.44539786 -1 12 C-3.47636012 10.62533375 -3.47636012 10.62533375 -6 10 Z " fill="#000000" transform="translate(85,5)"/>
<path d="M0 0 C2.5 0.25 2.5 0.25 4.5 2.25 C6.0635513 14.43115549 2.43412684 26.23599449 -4.5 36.25 C-13.57829142 47.67612541 -24.83668721 56.46902688 -39.5 59.25 C-43.84633837 59.49582179 -48.16234227 59.66253248 -52.5 59.25 C-54.5 57.25 -54.5 57.25 -54.8190918 54.8605957 C-54.43145052 51.68917395 -53.62067729 50.72765871 -51.39453125 48.48046875 C-50.41323242 47.48950195 -50.41323242 47.48950195 -49.41210938 46.47851562 C-48.71923828 45.80498047 -48.02636719 45.13144531 -47.3125 44.4375 C-46.63896484 43.74462891 -45.96542969 43.05175781 -45.27148438 42.33789062 C-44.61083984 41.68369141 -43.95019531 41.02949219 -43.26953125 40.35546875 C-42.36618042 39.46057739 -42.36618042 39.46057739 -41.44458008 38.54760742 C-38.92801387 36.86831685 -37.47067011 36.83300649 -34.5 37.25 C-31.6875 39.625 -31.6875 39.625 -29.5 42.25 C-29.5 42.91 -29.5 43.57 -29.5 44.25 C-17.82723338 36.76140524 -10.00472606 27.85877671 -6.5 14.25 C-5.91007849 11.06593649 -5.40154114 7.89576667 -4.9921875 4.68359375 C-4.30897629 1.30549388 -3.45694988 0.34569499 0 0 Z " fill="#000000" transform="translate(123.5,68.75)"/>
<path d="M0 0 C2 2 2 2 2.3190918 4.3894043 C1.93145052 7.56082605 1.12067729 8.52234129 -1.10546875 10.76953125 C-2.08676758 11.76049805 -2.08676758 11.76049805 -3.08789062 12.77148438 C-3.78076172 13.44501953 -4.47363281 14.11855469 -5.1875 14.8125 C-5.86103516 15.50537109 -6.53457031 16.19824219 -7.22851562 16.91210938 C-7.88916016 17.56630859 -8.54980469 18.22050781 -9.23046875 18.89453125 C-9.83270264 19.49112549 -10.43493652 20.08771973 -11.05541992 20.70239258 C-13.57198613 22.38168315 -15.02932989 22.41699351 -18 22 C-20.8125 19.625 -20.8125 19.625 -23 17 C-23 16.34 -23 15.68 -23 15 C-34.67276662 22.48859476 -42.49527394 31.39122329 -46 45 C-46.58992151 48.18406351 -47.09845886 51.35423333 -47.5078125 54.56640625 C-48 57 -48 57 -50 59 C-52.5 59.25 -52.5 59.25 -55 59 C-57.68546125 56.31453875 -57.33000594 54.87750471 -57.375 51.125 C-57.1208162 35.77229857 -49.65794604 23.53213555 -39 13 C-28.27441294 3.27263589 -14.37157071 -1.36680672 0 0 Z " fill="#000000" transform="translate(57,0)"/>
</svg>
