<svg width="785" height="776" viewBox="0 0 785 776" fill="none" xmlns="http://www.w3.org/2000/svg">
<path d="M0 191.003C0 86.0692 85.0651 1 189.999 1C323.794 1 458.1 1 593.996 1C698.93 1 784 86.0655 784 191C784 321.491 784 452.481 784 584.997C784 689.931 698.935 775 594.001 775C460.206 775 325.9 775 190.004 775C85.0699 775 0 689.934 0 585C0 454.509 0 323.519 0 191.003Z" fill="#F8FBFE"/>
<path d="M413 1.00002C456.591 0.938146 456.591 0.938146 501.063 0.875021C510.198 0.856813 519.334 0.838605 528.746 0.819845C540.005 0.810812 540.005 0.810812 545.295 0.809133C548.947 0.807289 552.598 0.799872 556.25 0.78887C606.796 0.643291 606.796 0.643291 626.938 5.12502C628.402 5.44261 628.402 5.44261 629.896 5.76662C681.373 17.4713 725.987 46.6825 754.66 91.2344C775.528 124.438 784.176 162.601 784.134 201.487C784.136 203.133 784.138 204.778 784.141 206.423C784.147 210.916 784.147 215.409 784.145 219.902C784.145 224.759 784.151 229.616 784.155 234.473C784.164 243.98 784.167 253.486 784.167 262.993C784.168 270.726 784.17 278.46 784.173 286.194C784.182 308.151 784.186 330.109 784.185 352.067C784.185 353.841 784.185 353.841 784.185 355.65C784.185 357.426 784.185 357.426 784.185 359.238C784.185 378.409 784.194 397.58 784.208 416.752C784.223 436.467 784.23 456.183 784.229 475.899C784.229 486.955 784.231 498.012 784.242 509.068C784.251 518.485 784.253 527.902 784.247 537.319C784.243 542.115 784.243 546.912 784.252 551.708C784.321 592.415 781.45 631.835 763 669C762.632 669.753 762.263 670.507 761.883 671.283C739.755 716.146 701.828 747.721 654.765 764.077C623.309 774.575 591.967 775.596 559.17 775.405C554.517 775.382 549.864 775.381 545.211 775.378C531.703 775.358 518.195 775.302 504.688 775.25C474.431 775.167 444.174 775.085 413 775C413 699.43 413 623.86 413 546C489.438 545.75 489.438 545.75 513.553 545.702C520.7 545.669 520.7 545.669 527.848 545.63C531.026 545.613 534.204 545.608 537.382 545.608C541.442 545.609 545.502 545.591 549.563 545.559C551.049 545.55 552.535 545.549 554.021 545.554C565.601 545.607 565.601 545.607 576 541C580.142 536.709 581.327 532.817 581.563 526.875C581.293 520.773 579.596 517.423 575.125 513.25C570.377 510.457 565.878 509.748 560.432 509.722C559.128 509.71 557.824 509.699 556.48 509.688C555.048 509.685 553.615 509.683 552.182 509.681C550.664 509.672 549.146 509.662 547.628 509.651C543.517 509.623 539.406 509.608 535.295 509.595C530.994 509.58 526.694 509.553 522.394 509.527C514.256 509.481 506.117 509.444 497.979 509.411C488.712 509.372 479.445 509.323 470.177 509.273C451.118 509.169 432.059 509.082 413 509C413 520.88 413 532.76 413 545C393.53 545 374.06 545 354 545C354 545.66 354 546.32 354 547C354.735 547.242 355.47 547.485 356.227 547.734C365.906 552.151 371.134 563.664 375 573C376.053 576.017 376.688 578.822 377 582C377.081 582.825 377.162 583.65 377.246 584.5C377.89 597.918 372.905 610.365 363.969 620.246C352.988 630.769 340.287 634.494 325.434 634.254C320.611 633.897 316.469 632.803 312 631C311.327 630.745 310.654 630.49 309.961 630.227C297.968 625.019 288.938 613.799 284 602C279.749 589.277 281.219 576.943 287 565C291.112 557.653 296.498 552.278 303 547C301.476 546.961 301.476 546.961 299.922 546.922C281.719 546.258 267.794 540.228 255 527C245.428 516.016 243.855 499.987 244.804 486.08C246.21 471.186 254.665 460.117 265 450C267.208 448.253 269.393 446.551 271.734 444.988C274.284 440.983 272.359 435.72 271.439 431.313C270.767 428.345 270.047 425.391 269.313 422.438C269.045 421.341 268.777 420.245 268.502 419.115C266.5 410.939 264.439 402.779 262.383 394.616C260.26 386.138 258.244 377.635 256.25 369.125C256.002 368.068 256.002 368.068 255.75 366.99C255.409 365.536 255.068 364.081 254.727 362.627C254.554 361.889 254.381 361.151 254.203 360.391C254.027 359.64 253.852 358.89 253.671 358.117C251.463 348.7 249.236 339.286 247 329.875C246.789 328.985 246.577 328.096 246.36 327.179C243.409 314.77 240.371 302.386 237.25 290.019C234.838 280.457 232.552 270.875 230.369 261.259C227.709 249.593 224.846 237.978 221.983 226.361C221.607 224.829 221.231 223.297 220.856 221.766C220.597 220.722 220.597 220.722 220.332 219.657C219.385 215.788 218.635 211.931 218 208C217.116 208.009 216.232 208.018 215.32 208.027C206.964 208.107 198.608 208.168 190.252 208.207C185.956 208.228 181.661 208.256 177.365 208.302C173.216 208.345 169.066 208.369 164.916 208.38C163.337 208.387 161.759 208.401 160.18 208.423C142.943 208.65 142.943 208.65 136.499 202.588C131.956 197.544 130.511 192.921 130.688 186.273C131.389 181.169 134.121 177.576 137.875 174.188C143.471 170.27 148.633 169.701 155.325 169.709C156.139 169.703 156.953 169.696 157.792 169.689C160.47 169.67 163.149 169.666 165.828 169.664C167.701 169.658 169.575 169.651 171.448 169.644C175.372 169.632 179.295 169.628 183.219 169.629C188.227 169.63 193.234 169.602 198.242 169.568C202.111 169.546 205.98 169.542 209.849 169.543C211.694 169.54 213.54 169.532 215.384 169.516C236.667 169.353 236.667 169.353 244.084 175.816C251.94 183.752 254.078 195.281 256.75 205.75C257.066 206.942 257.382 208.135 257.707 209.363C258.005 210.517 258.303 211.671 258.609 212.859C258.877 213.895 259.145 214.932 259.421 215.999C260 219 260 219 260 225C310.49 225 360.98 225 413 225C413 151.08 413 77.16 413 1.00002Z" fill="#00AC44"/>
<path d="M155.325 169.709C156.139 169.703 156.953 169.696 157.792 169.689C160.47 169.67 163.149 169.666 165.828 169.664C167.701 169.658 169.575 169.651 171.448 169.644C175.372 169.632 179.295 169.628 183.219 169.629C188.227 169.63 193.234 169.602 198.242 169.568C202.111 169.546 205.98 169.542 209.849 169.543C211.694 169.54 213.54 169.532 215.384 169.516C236.667 169.354 236.667 169.354 244.084 175.816C251.94 183.752 254.078 195.281 256.75 205.75C257.066 206.942 257.382 208.135 257.707 209.363C258.154 211.094 258.154 211.094 258.609 212.859C259.011 214.414 259.011 214.414 259.421 215.999C260.015 219.078 260.04 221.873 260 225C261.228 224.998 261.228 224.998 262.481 224.997C310.981 224.929 359.481 224.878 407.98 224.847C413.801 224.843 419.621 224.839 425.442 224.835C426.601 224.834 427.76 224.834 428.953 224.833C447.728 224.82 466.503 224.796 485.278 224.769C504.535 224.741 523.793 224.724 543.051 224.718C554.938 224.714 566.826 224.701 578.714 224.676C586.86 224.66 595.006 224.656 603.153 224.66C607.856 224.661 612.56 224.658 617.263 224.642C621.568 224.628 625.872 224.627 630.176 224.637C631.735 224.639 633.294 224.635 634.852 224.625C636.969 224.613 639.085 224.62 641.202 224.631C642.967 224.629 642.967 224.629 644.767 224.627C651.014 225.347 654.928 228.377 659 233C662.75 238.491 663.703 243.381 663 250C661.835 254.637 660.302 259.144 658.766 263.668C658.326 264.993 657.887 266.318 657.449 267.643C656.297 271.122 655.131 274.596 653.962 278.069C652.556 282.253 651.166 286.443 649.774 290.633C648.687 293.9 647.598 297.167 646.503 300.432C644.228 307.223 642.043 314.032 639.956 320.883C638.43 325.858 636.832 330.809 635.234 335.762C634.884 336.851 634.534 337.939 634.172 339.061C633.422 341.393 632.671 343.724 631.92 346.056C630.113 351.665 628.309 357.275 626.504 362.885C625.885 364.81 625.266 366.735 624.646 368.66C620.945 380.166 617.251 391.674 613.565 403.185C612.569 406.294 611.57 409.402 610.572 412.51C607.576 421.848 604.618 431.194 601.77 440.578C601.271 442.209 600.772 443.84 600.273 445.471C599.373 448.414 598.492 451.36 597.623 454.312C594.903 463.35 591.809 472.399 583.313 477.5C582.566 477.964 581.82 478.428 581.051 478.906C577.071 481.029 573.898 481.124 569.451 481.12C568.449 481.122 568.449 481.122 567.426 481.123C565.183 481.125 562.94 481.119 560.697 481.114C559.09 481.113 557.484 481.113 555.878 481.114C551.512 481.114 547.147 481.108 542.781 481.101C538.221 481.095 533.661 481.095 529.1 481.093C520.462 481.09 511.824 481.082 503.187 481.072C493.354 481.061 483.521 481.055 473.688 481.05C453.458 481.04 433.229 481.022 413 481C413 502.12 413 523.24 413 545C393.53 545 374.06 545 354 545C354 545.66 354 546.32 354 547C354.735 547.242 355.47 547.485 356.227 547.734C365.906 552.151 371.134 563.664 375 573C376.053 576.017 376.688 578.823 377 582C377.081 582.825 377.162 583.65 377.246 584.5C377.89 597.918 372.905 610.365 363.969 620.246C352.988 630.769 340.287 634.494 325.434 634.254C320.611 633.897 316.469 632.803 312 631C311.327 630.745 310.654 630.49 309.961 630.227C297.968 625.019 288.938 613.799 284 602C279.749 589.277 281.219 576.943 287 565C291.112 557.653 296.498 552.278 303 547C301.984 546.974 300.968 546.948 299.922 546.922C281.719 546.258 267.794 540.228 255 527C245.428 516.016 243.855 499.987 244.804 486.08C246.21 471.186 254.665 460.117 265 450C267.208 448.253 269.393 446.551 271.734 444.988C274.284 440.983 272.359 435.72 271.439 431.313C270.767 428.345 270.047 425.391 269.313 422.438C269.045 421.341 268.777 420.245 268.502 419.115C266.5 410.939 264.439 402.779 262.383 394.616C260.26 386.138 258.244 377.635 256.25 369.125C256.085 368.42 255.92 367.716 255.75 366.99C255.409 365.536 255.068 364.081 254.727 362.627C254.554 361.889 254.381 361.151 254.203 360.391C254.027 359.64 253.852 358.89 253.671 358.117C251.463 348.7 249.236 339.286 247 329.875C246.789 328.985 246.577 328.096 246.36 327.179C243.409 314.77 240.371 302.386 237.25 290.019C234.838 280.457 232.552 270.875 230.369 261.259C227.709 249.593 224.846 237.978 221.983 226.361C221.607 224.829 221.231 223.297 220.856 221.766C220.683 221.07 220.51 220.374 220.332 219.657C219.385 215.788 218.635 211.932 218 208C216.674 208.013 216.674 208.013 215.32 208.027C206.964 208.107 198.608 208.168 190.252 208.207C185.956 208.228 181.661 208.256 177.365 208.302C173.216 208.345 169.066 208.369 164.916 208.38C163.337 208.387 161.759 208.401 160.18 208.423C142.943 208.65 142.943 208.65 136.499 202.588C131.956 197.544 130.511 192.921 130.688 186.273C131.389 181.169 134.121 177.576 137.875 174.188C143.471 170.27 148.633 169.701 155.325 169.709Z" fill="#01AD44"/>
<path d="M413 225C451.651 224.938 490.303 224.876 530.125 224.812C542.339 224.785 554.553 224.758 567.137 224.73C582.027 224.716 582.027 224.716 588.993 224.714C593.869 224.711 598.744 224.7 603.62 224.683C609.835 224.663 616.05 224.656 622.265 224.661C624.549 224.66 626.832 224.654 629.116 224.642C632.196 224.627 635.276 224.631 638.357 224.639C639.254 224.63 640.15 224.622 641.074 224.613C647.571 224.659 651.709 225.976 656.688 230.375C661.458 235.79 663.316 240.244 663.271 247.453C662.675 253.058 660.57 258.355 658.766 263.668C658.326 264.993 657.887 266.318 657.449 267.643C656.297 271.122 655.131 274.596 653.962 278.069C652.556 282.253 651.166 286.443 649.774 290.632C648.687 293.9 647.598 297.167 646.503 300.432C644.228 307.223 642.043 314.032 639.956 320.883C638.43 325.858 636.832 330.809 635.234 335.762C634.709 337.395 634.709 337.395 634.172 339.061C633.422 341.393 632.671 343.724 631.92 346.056C630.113 351.665 628.309 357.275 626.504 362.885C625.885 364.81 625.266 366.735 624.646 368.66C620.945 380.166 617.251 391.674 613.565 403.185C612.569 406.294 611.57 409.402 610.572 412.51C607.576 421.848 604.618 431.194 601.77 440.578C601.271 442.209 600.772 443.84 600.273 445.471C599.373 448.414 598.492 451.36 597.623 454.312C594.903 463.35 591.809 472.399 583.312 477.5C582.566 477.964 581.82 478.428 581.051 478.906C577.071 481.029 573.898 481.124 569.451 481.12C568.785 481.121 568.118 481.122 567.431 481.123C565.186 481.124 562.941 481.119 560.697 481.113C559.064 481.113 557.432 481.113 555.799 481.114C551.422 481.114 547.044 481.108 542.666 481.101C538.561 481.096 534.455 481.095 530.35 481.095C518.337 481.089 506.325 481.075 494.312 481.062C467.479 481.042 440.646 481.021 413 481C413 396.52 413 312.04 413 225Z" fill="#FDFEFD"/>
<path d="M452.042 259.519C452.763 259.516 453.485 259.512 454.228 259.509C456.651 259.502 459.073 259.524 461.497 259.546C463.231 259.547 464.965 259.546 466.7 259.544C471.414 259.543 476.129 259.567 480.843 259.594C485.768 259.619 490.693 259.622 495.618 259.627C504.946 259.639 514.275 259.672 523.603 259.712C534.222 259.757 544.841 259.779 555.46 259.799C577.307 259.841 599.153 259.911 621 260C620.53 261.57 620.061 263.139 619.591 264.709C619.329 265.583 619.068 266.457 618.798 267.358C617.56 271.454 616.266 275.533 614.965 279.609C614.519 281.006 614.519 281.006 614.065 282.431C610.077 294.922 606.026 307.393 601.983 319.866C595.034 341.305 588.1 362.748 581.24 384.214C580.262 387.273 579.283 390.332 578.304 393.39C575.734 401.42 573.167 409.451 570.642 417.496C569.708 420.469 568.768 423.441 567.826 426.412C567.211 428.361 566.607 430.313 566.003 432.265C565.645 433.393 565.287 434.521 564.918 435.684C564.616 436.648 564.315 437.613 564.004 438.607C562.933 441.159 562.151 442.292 560 444C557.843 444.38 557.843 444.38 555.293 444.388C554.326 444.398 553.358 444.408 552.362 444.418C551.302 444.413 550.242 444.409 549.15 444.404C547.474 444.414 547.474 444.414 545.764 444.425C542.061 444.443 538.359 444.439 534.656 444.434C532.089 444.438 529.522 444.443 526.955 444.449C521.572 444.458 516.188 444.456 510.805 444.446C504.58 444.435 498.355 444.449 492.13 444.475C486.142 444.5 480.156 444.503 474.168 444.496C471.62 444.496 469.071 444.502 466.523 444.515C462.965 444.529 459.407 444.519 455.849 444.502C454.26 444.516 454.26 444.516 452.638 444.531C451.187 444.516 451.187 444.516 449.706 444.501C448.444 444.501 448.444 444.501 447.156 444.501C445 444 445 444 443.229 442.415C441.55 439.117 441.622 436.563 441.619 432.864C441.614 432.145 441.609 431.426 441.605 430.685C441.593 428.274 441.602 425.864 441.612 423.453C441.607 421.725 441.602 419.997 441.596 418.269C441.582 413.575 441.587 408.881 441.597 404.187C441.604 399.277 441.597 394.368 441.593 389.458C441.587 381.213 441.594 372.968 441.609 364.723C441.625 355.186 441.62 345.65 441.603 336.114C441.59 327.93 441.588 319.747 441.595 311.563C441.6 306.674 441.601 301.785 441.591 296.895C441.582 292.299 441.588 287.702 441.606 283.106C441.609 281.418 441.608 279.729 441.602 278.041C441.594 275.739 441.604 273.438 441.619 271.136C441.62 269.847 441.621 268.558 441.622 267.23C442.448 260.163 445.331 259.5 452.042 259.519Z" fill="#00AC44"/>
<path d="M296.834 480.88C297.855 480.878 298.876 480.877 299.927 480.876C301.052 480.879 302.176 480.883 303.334 480.886C304.515 480.886 305.695 480.886 306.911 480.886C310.153 480.887 313.394 480.892 316.636 480.899C320.022 480.905 323.408 480.905 326.794 480.907C333.208 480.91 339.621 480.918 346.035 480.928C353.336 480.939 360.637 480.945 367.938 480.95C382.959 480.96 397.979 480.978 413 481C413 490.24 413 499.48 413 509C397.327 509.09 381.654 509.164 365.981 509.207C358.704 509.228 351.427 509.256 344.149 509.302C337.805 509.342 331.461 509.367 325.117 509.376C321.759 509.382 318.401 509.394 315.043 509.423C311.291 509.452 307.54 509.456 303.788 509.454C302.678 509.468 301.569 509.483 300.425 509.498C293 509.458 289.629 508.379 284.187 503.312C282.316 499.667 281.886 496.077 282 492C284.432 484.839 289.371 480.872 296.834 480.88Z" fill="#FDFEFD"/>
<path d="M517.125 560.438C517.869 560.439 518.613 560.441 519.38 560.443C527.967 560.719 534.512 564.021 541 569.563C541.66 570.367 542.32 571.171 543 572C543.701 572.784 544.402 573.568 545.125 574.375C549.293 580.211 550.539 585.283 550.437 592.313C550.428 593.06 550.419 593.808 550.41 594.578C550.105 604.352 546.879 610.988 540.152 618.09C537.046 620.847 533.851 622.517 530 624C529.232 624.353 528.463 624.706 527.672 625.07C519.094 628.055 509.704 626.415 501.691 622.605C493.9 617.958 489.2 611.418 486 603C483.506 592.766 484.974 584.232 490 575C492.459 571.56 494.823 569.156 498.375 566.875C499.105 566.398 499.834 565.921 500.586 565.43C506.201 562.104 510.541 560.416 517.125 560.438Z" fill="#FCFEFD"/>
<path d="M269 261C283.52 261 298.04 261 313 261C317.778 278.918 317.778 278.918 319.75 287.5C319.97 288.423 320.191 289.346 320.418 290.297C320.626 291.199 320.833 292.102 321.047 293.031C321.231 293.821 321.415 294.61 321.604 295.424C322 298 322 298 322 305C307.81 305 293.62 305 279 305C277.536 299.039 276.071 293.079 274.562 286.938C274.102 285.07 273.641 283.202 273.166 281.277C272.799 279.777 272.433 278.277 272.066 276.777C271.877 276.014 271.688 275.251 271.493 274.465C271.31 273.715 271.128 272.964 270.94 272.191C270.703 271.229 270.703 271.229 270.462 270.246C269.833 267.19 269.441 264.089 269 261Z" fill="#F3F9FB"/>
<path d="M302 399C315.86 399 329.72 399 344 399C345.299 404.218 346.599 409.436 347.938 414.812C348.55 417.247 348.55 417.247 349.176 419.73C349.502 421.055 349.827 422.381 350.152 423.707C350.32 424.363 350.488 425.02 350.66 425.696C352.087 431.575 352.434 436.779 353 443C339.47 443 325.94 443 312 443C310.68 437.72 309.36 432.44 308 427C307.438 424.798 306.876 422.597 306.297 420.328C306.039 419.315 305.781 418.302 305.516 417.258C304.993 415.205 304.467 413.153 303.938 411.102C303.685 410.104 303.432 409.106 303.172 408.078C302.946 407.195 302.72 406.313 302.487 405.403C302 403 302 403 302 399Z" fill="#F4FAFC"/>
<path d="M286 331C300.19 331 314.38 331 329 331C330.299 336.631 331.599 342.261 332.938 348.062C333.55 350.708 333.55 350.708 334.176 353.406C334.501 354.824 334.827 356.242 335.152 357.66C335.32 358.38 335.488 359.1 335.66 359.842C335.823 360.551 335.985 361.261 336.152 361.992C336.292 362.599 336.432 363.205 336.576 363.829C337.169 366.866 337.563 369.938 338 373C323.81 373 309.62 373 295 373C293.886 368.483 292.773 363.966 291.625 359.312C291.278 357.917 290.931 356.521 290.573 355.083C290.294 353.938 290.014 352.793 289.727 351.613C289.444 350.466 289.161 349.32 288.87 348.138C287.678 342.47 286.881 336.725 286 331Z" fill="#F4F9FC"/>
<path d="M339 261C352.53 261 366.06 261 380 261C380 275.52 380 290.04 380 305C369.77 305 359.54 305 349 305C347.894 300.502 346.791 296.004 345.692 291.505C345.319 289.979 344.944 288.454 344.569 286.929C344.025 284.718 343.485 282.505 342.945 280.293C342.781 279.628 342.616 278.963 342.446 278.278C341.053 272.533 340.064 266.85 339 261Z" fill="#F4FAFC"/>
<path d="M413 546C464.48 546 515.96 546 569 546C569 546.33 569 546.66 569 547C518.18 547 467.36 547 415 547C415 621.58 415 696.16 415 773C476.38 773 537.76 773 601 773C600.67 773.66 600.34 774.32 600 775C538.29 775 476.58 775 413 775C413 699.43 413 623.86 413 546Z" fill="#1BAD4D"/>
<path d="M355 331C363.25 331 371.5 331 380 331C380 344.86 380 358.72 380 373C375.05 373 370.1 373 365 373C362.42 365.725 360.579 358.4 358.875 350.875C358.611 349.734 358.346 348.593 358.074 347.418C356.818 341.926 355.799 336.596 355 331Z" fill="#F3F9FB"/>
<path d="M370 399C373.3 399 376.6 399 380 399C380 413.19 380 427.38 380 442C379.67 442 379.34 442 379 442C377.876 437.002 376.755 432.003 375.637 427.004C375.257 425.305 374.876 423.607 374.493 421.909C373.942 419.459 373.395 417.009 372.848 414.559C372.678 413.807 372.508 413.056 372.333 412.282C371.352 407.867 370.582 403.485 370 399Z" fill="#EDF9F6"/>
<path d="M371 400C373.64 400 376.28 400 379 400C379 404.95 379 409.9 379 415C377.35 415.33 375.7 415.66 374 416C370.556 405.626 370.556 405.626 371 400Z" fill="#F4FBFB"/>
<path d="M378 428C378.66 428 379.32 428 380 428C380 432.62 380 437.24 380 442C379.67 442 379.34 442 379 442C376.519 432.59 376.519 432.59 378 428Z" fill="#E0F6ED"/>
<path d="M274 441C274.33 441.99 274.66 442.98 275 444C272.69 445.98 270.38 447.96 268 450C267.34 449.67 266.68 449.34 266 449C266.494 448.59 266.987 448.18 267.496 447.758C268.137 447.219 268.777 446.68 269.438 446.125C270.076 445.591 270.714 445.058 271.371 444.508C273.108 443.078 273.108 443.078 274 441Z" fill="#17AA4B"/>
<path d="M771 647C771.66 648.32 772.32 649.64 773 651C771.625 654.25 771.625 654.25 770 657C769.34 657 768.68 657 768 657C768.99 653.7 769.98 650.4 771 647Z" fill="#D6F0E5"/>
</svg>
