<svg width="80" height="80" viewBox="0 0 80 80" fill="none" xmlns="http://www.w3.org/2000/svg">
<rect width="80" height="80" rx="10" fill="#070944"/>
<path d="M10.0586 44V36.6816H7.52734V35.6738H13.6855V36.6816H11.166V44H10.0586ZM16.2812 40.1973H19.416C19.416 39.5801 19.2812 39.1016 19.0117 38.7617C18.7422 38.4219 18.3652 38.252 17.8809 38.252C17.4004 38.252 17.0215 38.4219 16.7441 38.7617C16.4668 39.0977 16.3125 39.5762 16.2812 40.1973ZM16.2812 41.082V41.1172C16.2812 41.7852 16.4297 42.3125 16.7266 42.6992C17.0234 43.0859 17.4277 43.2793 17.9395 43.2793C18.291 43.2793 18.5898 43.1816 18.8359 42.9863C19.0859 42.7871 19.2578 42.5098 19.3516 42.1543H20.4004C20.2793 42.7871 19.9844 43.291 19.5156 43.666C19.0469 44.041 18.4766 44.2285 17.8047 44.2285C17 44.2285 16.3613 43.9199 15.8887 43.3027C15.416 42.6855 15.1797 41.8418 15.1797 40.7715C15.1797 39.7168 15.4199 38.8789 15.9004 38.2578C16.3848 37.6367 17.0312 37.3262 17.8398 37.3262C18.6836 37.3262 19.3398 37.6133 19.8086 38.1875C20.2812 38.7617 20.5176 39.5625 20.5176 40.5898C20.5176 40.7266 20.5156 40.8301 20.5117 40.9004C20.5117 40.9668 20.5098 41.0273 20.5059 41.082H16.2812ZM23.3594 44H22.123L24.3789 40.6895L22.2402 37.5547H23.4883L25.0586 39.8984L26.6348 37.5547H27.8594L25.6855 40.6777L27.9883 44H26.7168L25.0117 41.4922L23.3594 44ZM31.2344 38.6738H29.4121V37.7715H31.2344V35.8906H32.2891V37.7715H34.7031V38.6738H32.2891V41.7207C32.2891 42.4004 32.3965 42.8379 32.6113 43.0332C32.8301 43.2285 33.2227 43.3262 33.7891 43.3262C33.9023 43.3262 34.0332 43.3203 34.1816 43.3086C34.334 43.2969 34.5078 43.2793 34.7031 43.2559V44.1641C34.3984 44.1875 34.1465 44.2031 33.9473 44.2109C33.752 44.2227 33.5879 44.2285 33.4551 44.2285C32.627 44.2285 32.0488 44.0703 31.7207 43.7539C31.3965 43.4336 31.2344 42.8164 31.2344 41.9023V38.6738ZM36.666 40.8301V35.6738H37.7676V40.8945C37.7676 41.6836 37.9121 42.2695 38.2012 42.6523C38.4902 43.0312 38.9336 43.2207 39.5312 43.2207C40.1211 43.2207 40.5605 43.0273 40.8496 42.6406C41.1387 42.2539 41.2832 41.6719 41.2832 40.8945V35.6738H42.4023V40.8301C42.4023 41.9863 42.168 42.8418 41.6992 43.3965C41.2305 43.9512 40.5078 44.2285 39.5312 44.2285C38.5625 44.2285 37.8418 43.9512 37.3691 43.3965C36.9004 42.8418 36.666 41.9863 36.666 40.8301ZM45.6953 38.6738H43.873V37.7715H45.6953V35.8906H46.75V37.7715H49.1641V38.6738H46.75V41.7207C46.75 42.4004 46.8574 42.8379 47.0723 43.0332C47.291 43.2285 47.6836 43.3262 48.25 43.3262C48.3633 43.3262 48.4941 43.3203 48.6426 43.3086C48.7949 43.2969 48.9688 43.2793 49.1641 43.2559V44.1641C48.8594 44.1875 48.6074 44.2031 48.4082 44.2109C48.2129 44.2227 48.0488 44.2285 47.916 44.2285C47.0879 44.2285 46.5098 44.0703 46.1816 43.7539C45.8574 43.4336 45.6953 42.8164 45.6953 41.9023V38.6738ZM54.7773 35.3867V36.582H53.6582V35.3867H54.7773ZM54.7363 43.1094H56.9219V44H51.5254V43.1094H53.6816V38.6738H52.0293V37.7715H54.7363V43.1094ZM60.8418 36.2715H59.1836V35.3867H61.8965V43.1094H64.0586V44H58.668V43.1094H60.8418V36.2715ZM69.127 40.2441C69.873 40.416 70.3809 40.6406 70.6504 40.918C70.9238 41.1953 71.0605 41.5898 71.0605 42.1016C71.0605 42.7656 70.8262 43.2871 70.3574 43.666C69.8926 44.041 69.2461 44.2285 68.418 44.2285C67.6211 44.2285 67.0039 44.0371 66.5664 43.6543C66.1328 43.2676 65.9121 42.7148 65.9043 41.9961H66.918C66.957 42.4258 67.1094 42.75 67.375 42.9688C67.6445 43.1836 68.0254 43.291 68.5176 43.291C68.9746 43.291 69.3359 43.1953 69.6016 43.0039C69.8711 42.8125 70.0059 42.5527 70.0059 42.2246C70.0059 41.9824 69.9375 41.7969 69.8008 41.668C69.668 41.5352 69.4082 41.4199 69.0215 41.3223L67.8438 41.0352C67.1719 40.8711 66.7031 40.6504 66.4375 40.373C66.1758 40.0957 66.0449 39.7051 66.0449 39.2012C66.0449 38.6309 66.2578 38.1758 66.6836 37.8359C67.1094 37.4961 67.6875 37.3262 68.418 37.3262C69.1641 37.3262 69.7578 37.502 70.1992 37.8535C70.6445 38.2012 70.8672 38.666 70.8672 39.248V39.2715H69.8359C69.8164 38.9473 69.6816 38.6934 69.4316 38.5098C69.1816 38.3223 68.8438 38.2285 68.418 38.2285C67.9883 38.2285 67.6602 38.3086 67.4336 38.4688C67.2109 38.6289 67.0996 38.8613 67.0996 39.166C67.0996 39.3848 67.168 39.5566 67.3047 39.6816C67.4453 39.8027 67.7129 39.9102 68.1074 40.0039L69.127 40.2441Z" fill="white"/>
</svg>
