<svg width="80" height="80" viewBox="0 0 80 80" fill="none" xmlns="http://www.w3.org/2000/svg">
<rect width="80" height="80" rx="10" fill="#1777F0"/>
<circle cx="18" cy="28" r="13" fill="#FDD203"/>
<path d="M10.5 45.5C10.7489 50.8246 12.0894 52.9107 16 55.5H62C68.6621 53.9894 72.2389 49.5728 72.5 42.5C67 31 66 33 54.5 29C49.4231 22.2376 46.643 16.217 32.5 17.5C20.8174 21.4352 17.0823 25.5183 16 36.5C12.9618 38.3998 11.5145 39.9331 10.5 45.5Z" fill="#EDF7FE"/>
<path d="M9.3418 70L7.90625 61.6621H8.89062L9.92188 68.752L11.082 61.6621H12.1309L13.3145 68.752L14.3457 61.6621H15.3066L13.8418 70H12.834L11.5977 62.7754L10.4023 70H9.3418ZM17.2812 66.1973H20.416C20.416 65.5801 20.2812 65.1016 20.0117 64.7617C19.7422 64.4219 19.3652 64.252 18.8809 64.252C18.4004 64.252 18.0215 64.4219 17.7441 64.7617C17.4668 65.0977 17.3125 65.5762 17.2812 66.1973ZM17.2812 67.082V67.1172C17.2812 67.7852 17.4297 68.3125 17.7266 68.6992C18.0234 69.0859 18.4277 69.2793 18.9395 69.2793C19.291 69.2793 19.5898 69.1816 19.8359 68.9863C20.0859 68.7871 20.2578 68.5098 20.3516 68.1543H21.4004C21.2793 68.7871 20.9844 69.291 20.5156 69.666C20.0469 70.041 19.4766 70.2285 18.8047 70.2285C18 70.2285 17.3613 69.9199 16.8887 69.3027C16.416 68.6855 16.1797 67.8418 16.1797 66.7715C16.1797 65.7168 16.4199 64.8789 16.9004 64.2578C17.3848 63.6367 18.0312 63.3262 18.8398 63.3262C19.6836 63.3262 20.3398 63.6133 20.8086 64.1875C21.2812 64.7617 21.5176 65.5625 21.5176 66.5898C21.5176 66.7266 21.5156 66.8301 21.5117 66.9004C21.5117 66.9668 21.5098 67.0273 21.5059 67.082H17.2812ZM27.2949 67.7441V66.7246C27.0293 66.873 26.584 66.9902 25.959 67.0762C25.7363 67.1074 25.5645 67.1348 25.4434 67.1582C25.0762 67.2285 24.8164 67.3438 24.6641 67.5039C24.5156 67.6641 24.4414 67.9004 24.4414 68.2129C24.4414 68.5605 24.5293 68.8242 24.7051 69.0039C24.8809 69.1797 25.1406 69.2676 25.4844 69.2676C26.0078 69.2676 26.4395 69.125 26.7793 68.8398C27.123 68.5547 27.2949 68.1895 27.2949 67.7441ZM27.418 69.1621C27.1133 69.5059 26.7852 69.7637 26.4336 69.9355C26.082 70.1074 25.7051 70.1934 25.3027 70.1934C24.7012 70.1934 24.2305 70.0273 23.8906 69.6953C23.5547 69.3594 23.3867 68.8965 23.3867 68.3066C23.3867 67.6543 23.5605 67.1699 23.9082 66.8535C24.2559 66.5332 24.8574 66.3223 25.7129 66.2207C25.8184 66.209 25.9668 66.1914 26.1582 66.168C26.9395 66.082 27.3301 65.7754 27.3301 65.248C27.3301 64.9121 27.2207 64.6641 27.002 64.5039C26.7832 64.3438 26.4453 64.2637 25.9883 64.2637C25.5273 64.2637 25.1797 64.3613 24.9453 64.5566C24.7148 64.752 24.5996 65.043 24.5996 65.4297H23.6504V65.3535C23.6504 64.7246 23.8613 64.2305 24.2832 63.8711C24.7051 63.5078 25.2852 63.3262 26.0234 63.3262C26.8164 63.3262 27.4023 63.4844 27.7812 63.8008C28.1641 64.1172 28.3555 64.6074 28.3555 65.2715V68.6055C28.3555 68.8672 28.3848 69.0391 28.4434 69.1211C28.502 69.2031 28.6035 69.2441 28.748 69.2441C28.7715 69.2441 28.8027 69.2422 28.8418 69.2383C28.8848 69.2305 28.9375 69.2207 29 69.209V70.0234C28.8828 70.0586 28.7773 70.082 28.6836 70.0938C28.5938 70.1094 28.5039 70.1172 28.4141 70.1172C28.082 70.1172 27.832 70.041 27.6641 69.8887C27.5 69.7324 27.418 69.502 27.418 69.1973V69.1621ZM32.2344 64.6738H30.4121V63.7715H32.2344V61.8906H33.2891V63.7715H35.7031V64.6738H33.2891V67.7207C33.2891 68.4004 33.3965 68.8379 33.6113 69.0332C33.8301 69.2285 34.2227 69.3262 34.7891 69.3262C34.9023 69.3262 35.0332 69.3203 35.1816 69.3086C35.334 69.2969 35.5078 69.2793 35.7031 69.2559V70.1641C35.3984 70.1875 35.1465 70.2031 34.9473 70.2109C34.752 70.2227 34.5879 70.2285 34.4551 70.2285C33.627 70.2285 33.0488 70.0703 32.7207 69.7539C32.3965 69.4336 32.2344 68.8164 32.2344 67.9023V64.6738ZM38.0527 70V61.3867H39.1074V64.4922C39.2949 64.1133 39.5488 63.8242 39.8691 63.625C40.1895 63.4258 40.5586 63.3262 40.9766 63.3262C41.4062 63.3262 41.7734 63.4004 42.0781 63.5488C42.3867 63.6973 42.623 63.916 42.7871 64.2051C42.8848 64.3652 42.9531 64.5527 42.9922 64.7676C43.0352 64.9785 43.0566 65.3105 43.0566 65.7637V66.0859V70H41.9961V65.9805C41.9961 65.3477 41.9062 64.9062 41.7266 64.6562C41.5469 64.4023 41.2461 64.2754 40.8242 64.2754C40.2812 64.2754 39.8594 64.4512 39.5586 64.8027C39.2578 65.1543 39.1074 65.6465 39.1074 66.2793V70H38.0527ZM46.2031 66.1973H49.3379C49.3379 65.5801 49.2031 65.1016 48.9336 64.7617C48.6641 64.4219 48.2871 64.252 47.8027 64.252C47.3223 64.252 46.9434 64.4219 46.666 64.7617C46.3887 65.0977 46.2344 65.5762 46.2031 66.1973ZM46.2031 67.082V67.1172C46.2031 67.7852 46.3516 68.3125 46.6484 68.6992C46.9453 69.0859 47.3496 69.2793 47.8613 69.2793C48.2129 69.2793 48.5117 69.1816 48.7578 68.9863C49.0078 68.7871 49.1797 68.5098 49.2734 68.1543H50.3223C50.2012 68.7871 49.9062 69.291 49.4375 69.666C48.9688 70.041 48.3984 70.2285 47.7266 70.2285C46.9219 70.2285 46.2832 69.9199 45.8105 69.3027C45.3379 68.6855 45.1016 67.8418 45.1016 66.7715C45.1016 65.7168 45.3418 64.8789 45.8223 64.2578C46.3066 63.6367 46.9531 63.3262 47.7617 63.3262C48.6055 63.3262 49.2617 63.6133 49.7305 64.1875C50.2031 64.7617 50.4395 65.5625 50.4395 66.5898C50.4395 66.7266 50.4375 66.8301 50.4336 66.9004C50.4336 66.9668 50.4316 67.0273 50.4277 67.082H46.2031ZM52.9062 70V63.5547H53.8672V64.6211C54.0898 64.2031 54.3691 63.8828 54.7051 63.6602C55.0449 63.4375 55.4258 63.3262 55.8477 63.3262C56.543 63.3262 57.0625 63.5117 57.4062 63.8828C57.7539 64.25 57.9336 64.8086 57.9453 65.5586H56.8789C56.8789 65.1406 56.7715 64.8223 56.5566 64.6035C56.3457 64.3848 56.0371 64.2754 55.6309 64.2754C55.0918 64.2754 54.6777 64.4512 54.3887 64.8027C54.1035 65.1504 53.9609 65.6543 53.9609 66.3145V70H52.9062ZM60.9395 66.5312H63.5117L62.2227 62.8574L60.9395 66.5312ZM58.5781 70L61.6133 61.6621H62.8379L65.8848 70H64.7598L63.8809 67.5508H60.5586L59.6797 70H58.5781ZM68.9023 68.9922V62.6816H67.3672V61.6738H71.5449V62.6816H70.0098V68.9922H71.5449V70H67.3672V68.9922H68.9023Z" fill="white"/>
</svg>
